<svg width="68" height="25" viewBox="0 0 68 25" fill="none" xmlns="http://www.w3.org/2000/svg">
<g clip-path="url(#clip0_53_547)">
<g clip-path="url(#clip1_53_547)">
<path fill-rule="evenodd" clip-rule="evenodd" d="M46.4665 6.43463C44.952 6.43463 43.4818 6.95317 42.3109 7.90812C41.1334 6.95317 39.6571 6.43463 38.1363 6.43463C36.6218 6.4283 35.1518 6.94685 33.9809 7.90812C32.8418 6.99114 31.3972 6.43463 29.8254 6.43463C28.3109 6.43463 26.8409 6.95317 25.67 7.90812C24.5309 6.99114 23.0863 6.43463 21.5145 6.43463C17.8554 6.43463 14.9091 9.35634 14.9091 12.98C14.9091 16.6037 17.8554 19.5254 21.5145 19.5254C23.0863 19.5254 24.55 18.9689 25.67 18.0582C26.8091 18.9752 28.2536 19.5254 29.8254 19.5254C31.3972 19.5254 32.8609 18.9689 33.9809 18.0582C35.1581 19.0132 36.6345 19.5317 38.1556 19.5254C39.7465 19.5254 41.1909 18.9689 42.3301 18.0582C43.4756 18.9752 44.9138 19.5254 46.4854 19.5254C50.1447 19.5254 53.0909 16.6037 53.0909 12.98C53.0716 9.38161 50.1254 6.43463 46.4665 6.43463ZM42.3109 15.9207C41.6934 15.0606 41.3629 14.0361 41.3629 12.98C41.3629 11.8923 41.7062 10.8678 42.3109 10.0393C42.928 10.8994 43.2589 11.9302 43.2589 12.98C43.2589 14.0867 42.8898 15.0922 42.3109 15.9207ZM33.9809 15.9207C33.3572 15.0606 33.0327 14.0361 33.0327 12.98C33.0327 11.8923 33.3763 10.8678 33.9809 10.0393C34.5982 10.8994 34.9291 11.9302 34.9291 12.98C34.9291 14.0867 34.56 15.0922 33.9809 15.9207ZM25.6509 15.9207C25.0336 15.0606 24.7027 14.0361 24.7027 12.98C24.7027 11.8923 25.0463 10.8678 25.6509 10.0393C26.2745 10.8994 26.5991 11.9302 26.5991 12.98C26.5991 14.0867 26.2363 15.0922 25.6509 15.9207ZM16.3536 12.98C16.3536 10.1848 18.6318 7.90812 21.4763 7.90812C22.6027 7.90812 23.7036 8.27492 24.5945 8.95157C23.71 10.0646 23.1945 11.4496 23.1945 12.98C23.1945 14.4915 23.71 15.9017 24.5945 17.0084C23.7354 17.6724 22.66 18.0582 21.4763 18.0582C18.6572 18.0582 16.3536 15.7942 16.3536 12.98ZM26.6818 17.0084C27.5663 15.9017 28.0818 14.5167 28.0818 12.98C28.0818 11.4686 27.5663 10.0583 26.6818 8.95157C27.5409 8.2939 28.6163 7.90812 29.8 7.90812C30.9836 7.90812 32.0591 8.2939 32.9181 8.95157C32.04 10.0646 31.5182 11.4496 31.5182 12.98C31.5182 14.4915 32.0336 15.9017 32.9181 17.0084C32.0591 17.6724 30.9836 18.0582 29.8 18.0582C28.6227 18.0582 27.5472 17.6724 26.6818 17.0084ZM35.0118 17.0084C35.8963 15.9017 36.412 14.5167 36.412 12.98C36.412 11.4686 35.8963 10.0583 35.0118 8.95157C35.8772 8.2939 36.9465 7.90812 38.1301 7.90812C39.2563 7.90812 40.3574 8.27492 41.2483 8.95157C40.3701 10.0646 39.8483 11.4496 39.8483 12.98C39.8483 14.4915 40.3636 15.9017 41.2483 17.0084C40.3829 17.6724 39.3138 18.0582 38.1301 18.0582C37.0101 18.0582 35.9091 17.6914 35.0118 17.0084ZM46.4665 18.0582C45.34 18.0582 44.2392 17.6914 43.3483 17.0084C44.2265 15.9017 44.7418 14.5167 44.7418 12.98C44.7418 11.4686 44.2265 10.0583 43.3483 8.95157C44.2072 8.2939 45.2829 7.90812 46.4665 7.90812C49.2854 7.90812 51.5891 10.1658 51.5891 12.98C51.5891 15.7942 49.2854 18.0582 46.4665 18.0582Z" fill="white"/>
</g>
</g>
<defs>
<clipPath id="clip0_53_547">
<rect width="68" height="24" fill="white" transform="translate(0 0.97998)"/>
</clipPath>
<clipPath id="clip1_53_547">
<rect width="68" height="24" fill="white" transform="translate(0 0.97998)"/>
</clipPath>
</defs>
</svg>
