<svg width="22" height="23" viewBox="0 0 22 23" fill="none" xmlns="http://www.w3.org/2000/svg">
<g clip-path="url(#clip0_49_356)">
<g clip-path="url(#clip1_49_356)">
<g clip-path="url(#clip2_49_356)">
<path fill-rule="evenodd" clip-rule="evenodd" d="M21.4345 9.95649C21.4345 6.29267 21.4345 4.46076 20.5553 3.14482C20.1745 2.57513 19.6854 2.08599 19.1157 1.70534C17.7998 0.82605 15.9679 0.82605 12.3041 0.82605H9.69538C6.03156 0.82605 4.19966 0.82605 2.8837 1.70534C2.31402 2.08599 1.82488 2.57513 1.44423 3.14482C0.564941 4.46076 0.564941 6.29267 0.564941 9.95649C0.564941 13.6203 0.564941 15.4522 1.44423 16.7681C1.82488 17.3379 2.31402 17.827 2.8837 18.2076C4.0333 18.9758 5.57664 19.0728 8.39103 19.0851V19.0869L9.83308 21.971C10.3137 22.9324 11.6857 22.9324 12.1664 21.971L13.6084 19.0869V19.0851C16.4228 19.0728 17.9662 18.9758 19.1157 18.2076C19.6854 17.827 20.1745 17.3379 20.5553 16.7681C21.4345 15.4522 21.4345 13.6203 21.4345 9.95649ZM7.08668 6.04352C6.36631 6.04352 5.78234 6.62749 5.78234 7.34787C5.78234 8.06824 6.36631 8.65221 7.08668 8.65221H14.9127C15.6331 8.65221 16.2172 8.06824 16.2172 7.34787C16.2172 6.62749 15.6331 6.04352 14.9127 6.04352H7.08668ZM7.08668 11.2609C6.36631 11.2609 5.78234 11.8448 5.78234 12.5652C5.78234 13.2856 6.36631 13.8696 7.08668 13.8696H10.9997C11.7201 13.8696 12.3041 13.2856 12.3041 12.5652C12.3041 11.8448 11.7201 11.2609 10.9997 11.2609H7.08668Z" fill="white"/>
</g>
</g>
</g>
<defs>
<clipPath id="clip0_49_356">
<rect width="22" height="22.5" fill="white" transform="translate(0 0.5)"/>
</clipPath>
<clipPath id="clip1_49_356">
<rect width="22" height="22.5" fill="white" transform="translate(0 0.5)"/>
</clipPath>
<clipPath id="clip2_49_356">
<rect width="21.5217" height="22.5" fill="white" transform="translate(0.239014 0.5)"/>
</clipPath>
</defs>
</svg>
