<svg width="80" height="18" viewBox="0 0 80 18" fill="none" xmlns="http://www.w3.org/2000/svg">
<g clip-path="url(#clip0_53_614)">
<g clip-path="url(#clip1_53_614)">
<g clip-path="url(#clip2_53_614)">
<path fill-rule="evenodd" clip-rule="evenodd" d="M0.238037 17.3078V15.6476H1.16042C1.6214 15.6476 2.54421 15.5553 2.54421 14.4484V4.48627C2.54421 3.88666 2.49786 2.45694 1.34498 2.45694H0.28439L1.48362 0.335327H72.4373V2.45694H7.15656C6.55694 2.45694 5.77278 2.59515 5.77278 3.79438V6.93066C5.91143 7.29937 6.46467 7.43758 6.74153 7.43758C7.01834 7.43758 7.98667 7.39164 7.98667 5.86964H9.37045V10.9893H7.98667C7.98667 10.5279 7.47721 9.7552 6.78786 9.6978C6.23418 9.65191 5.77278 9.83601 5.77278 10.5743V14.4484C5.77278 14.8639 6.28013 15.6476 7.47932 15.6476H8.30986V17.3078H0.238037Z" fill="white"/>
<path fill-rule="evenodd" clip-rule="evenodd" d="M41.1853 4.85502C41.1853 5.22414 41.6462 5.59284 41.9227 5.68512C42.2458 5.45464 43.9524 4.48632 45.2898 4.48632C46.6273 4.48632 47.3188 5.17779 47.3188 6.2388V11.3122H44.0902V7.3921C44.0902 6.8848 43.9524 6.51566 43.4906 6.46972C43.0296 6.42377 41.8304 7.3921 41.508 7.8535V14.8639C41.508 15.5099 42.1536 15.9709 42.7073 15.9709V17.3087H37.0807V15.9249C37.6339 15.9249 38.2335 15.7404 38.2799 14.9103V7.11485C38.2799 6.88437 37.9108 6.23837 37.0807 6.23837V4.85502H41.1853ZM79.7983 4.85502H74.1718V6.2388C75.0016 6.2388 75.3702 6.88437 75.3702 7.11529V14.9098C75.3248 15.7399 74.7248 15.9245 74.1718 15.9245V17.3083H79.7983V15.9704C79.2448 15.9704 78.5989 15.5094 78.5989 14.8634V7.20712C78.5989 6.65388 79.1989 6.2388 79.7983 6.2388V4.85502ZM28.7324 4.85502C28.7324 5.22414 29.1934 5.59284 29.4702 5.68512C29.793 5.45464 31.4996 4.48632 32.837 4.48632C34.1744 4.48632 34.8663 5.17779 34.8663 6.2388V11.3122H31.6382V7.3921C31.6382 6.8848 31.4996 6.51566 31.0386 6.46972C30.5772 6.42377 29.378 7.3921 29.0552 7.8535V14.8639C29.0552 15.5099 29.7011 15.9709 30.2544 15.9709V17.3087H24.6278V15.9249C25.1811 15.9249 25.7807 15.7404 25.827 14.9103V7.11485C25.827 6.88437 25.458 6.23837 24.6278 6.23837V4.85502H28.7324ZM66.1459 4.85502C66.1459 5.22414 66.6075 5.59284 66.8843 5.68512C67.207 5.45464 68.9129 4.48632 70.2513 4.48632C71.5886 4.48632 72.28 5.17779 72.28 6.2388V11.3122H69.0518V7.3921C69.0518 6.8848 68.9129 6.51566 68.4519 6.46972C67.9908 6.42377 66.7919 7.3921 66.4686 7.8535V14.8639C66.4686 15.5099 67.114 15.9709 67.6675 15.9709V17.3087H62.041V15.9249C62.5951 15.9249 63.1946 15.7404 63.24 14.9103V7.11485C63.24 6.88437 62.8713 6.23837 62.041 6.23837V4.85502H66.1459ZM22.1924 13.4338H18.9638V14.6793C18.9638 15.1863 18.8715 16.2477 17.3495 16.2477C15.8275 16.2477 15.3665 15.2326 15.3665 14.4947V11.8658C15.3665 11.6353 15.5511 11.3122 15.8739 11.3122H22.1924V7.94539C22.1924 6.42339 21.8696 5.96199 21.2236 5.31643C20.5781 4.67046 18.3178 4.48632 17.3032 4.48632C14.7206 4.48632 13.8901 4.85502 13.1522 5.45464C12.4144 6.05426 12.1376 7.29939 12.1376 8.22177V13.4333C12.1376 14.8167 12.4144 15.7854 13.2904 16.6619C14.1665 17.5384 16.8418 17.5384 17.3955 17.5384C17.9487 17.5384 19.7935 17.5843 21.1314 16.6159C22.4692 15.6477 22.1924 13.4338 22.1924 13.4338ZM15.3665 7.71491C15.3665 6.97707 15.597 5.8701 17.2113 5.8701C18.8256 5.8701 18.9638 7.06934 18.9638 7.71491V9.37507C18.9638 9.6515 18.7333 9.92837 18.4105 9.92837H15.9198C15.6434 9.92837 15.3665 9.69788 15.3665 9.42145V7.71491ZM59.1821 14.8634V7.94539C59.1821 6.88437 59.1356 5.77783 58.0286 4.99365C56.9221 4.20948 55.1232 4.25583 54.4313 4.25583C53.7393 4.25583 51.4336 4.25583 50.3721 5.45506C49.3115 6.65431 49.4956 7.80718 49.4956 8.26815H52.5171C52.5171 8.26815 52.7238 6.7002 53.1393 6.28518C53.5569 5.86756 54.6616 5.40871 55.5146 6.14653C55.8286 6.41869 55.9524 6.76912 55.9524 7.16118V9.14415C55.9524 9.32918 55.7675 9.60556 55.5378 9.60556C55.5378 9.60556 51.34 9.69788 50.6026 10.2516C49.8652 10.8048 49.2188 11.1739 49.2188 13.2033C49.2188 15.2322 49.7261 16.0164 50.3262 16.4318C50.9258 16.8469 51.2027 17.3083 53.9234 17.3083H60.3805V15.9704C59.8275 15.9704 59.1821 15.5094 59.1821 14.8634ZM55.9535 15.6477C55.9535 15.7629 55.7686 15.924 55.6308 15.924H54.0395C52.9092 15.924 52.5869 14.9558 52.5869 14.3557V12.5798C52.5869 10.8507 54.3854 10.8966 55.1 10.8966C55.8151 10.8966 55.9535 11.4958 55.9535 11.8879V15.6477ZM76.7735 2.43403C78.3881 2.43403 79.6962 1.94328 79.6962 1.33771C79.6962 0.732569 78.3881 0.241394 76.7735 0.241394C75.1589 0.241394 73.8497 0.732143 73.8497 1.33771C73.8497 1.94285 75.1589 2.43403 76.7735 2.43403Z" fill="white"/>
</g>
</g>
</g>
<defs>
<clipPath id="clip0_53_614">
<rect width="80" height="17.3" fill="white" transform="translate(0 0.240051)"/>
</clipPath>
<clipPath id="clip1_53_614">
<rect width="80" height="17.3" fill="white" transform="translate(0 0.240051)"/>
</clipPath>
<clipPath id="clip2_53_614">
<rect width="80" height="17.2973" fill="white" transform="translate(0 0.241394)"/>
</clipPath>
</defs>
</svg>
