<svg width="25" height="25" viewBox="0 0 25 25" fill="none" xmlns="http://www.w3.org/2000/svg">
<path fill-rule="evenodd" clip-rule="evenodd" d="M3 10.25C3 9.91848 3.1317 9.60054 3.36612 9.36612C3.60054 9.1317 3.91848 9 4.25 9H17.135C17.4665 9 17.7845 9.1317 18.0189 9.36612C18.2533 9.60054 18.385 9.91848 18.385 10.25C18.385 10.5815 18.2533 10.8995 18.0189 11.1339C17.7845 11.3683 17.4665 11.5 17.135 11.5H4.25C3.91848 11.5 3.60054 11.3683 3.36612 11.1339C3.1317 10.8995 3 10.5815 3 10.25ZM3 5.25C3 4.91848 3.1317 4.60054 3.36612 4.36612C3.60054 4.1317 3.91848 4 4.25 4H21.75C22.0815 4 22.3995 4.1317 22.6339 4.36612C22.8683 4.60054 23 4.91848 23 5.25C23 5.58152 22.8683 5.89946 22.6339 6.13388C22.3995 6.3683 22.0815 6.5 21.75 6.5H4.25C3.91848 6.5 3.60054 6.3683 3.36612 6.13388C3.1317 5.89946 3 5.58152 3 5.25ZM3 15.25C3 14.9185 3.1317 14.6005 3.36612 14.3661C3.60054 14.1317 3.91848 14 4.25 14H21.75C22.0815 14 22.3995 14.1317 22.6339 14.3661C22.8683 14.6005 23 14.9185 23 15.25C23 15.5815 22.8683 15.8995 22.6339 16.1339C22.3995 16.3683 22.0815 16.5 21.75 16.5H4.25C3.91848 16.5 3.60054 16.3683 3.36612 16.1339C3.1317 15.8995 3 15.5815 3 15.25ZM3 20.25C3 19.9185 3.1317 19.6005 3.36612 19.3661C3.60054 19.1317 3.91848 19 4.25 19H17.135C17.4665 19 17.7845 19.1317 18.0189 19.3661C18.2533 19.6005 18.385 19.9185 18.385 20.25C18.385 20.5815 18.2533 20.8995 18.0189 21.1339C17.7845 21.3683 17.4665 21.5 17.135 21.5H4.25C3.91848 21.5 3.60054 21.3683 3.36612 21.1339C3.1317 20.8995 3 20.5815 3 20.25Z" fill="white"/>
</svg>
