<svg width="30" height="30" viewBox="0 0 30 30" fill="none" xmlns="http://www.w3.org/2000/svg">
<g clip-path="url(#clip0_7_119)">
<g clip-path="url(#clip1_7_119)">
<g clip-path="url(#clip2_7_119)">
<mask id="mask0_7_119" style="mask-type:luminance" maskUnits="userSpaceOnUse" x="0" y="0" width="30" height="30">
<path d="M29.6939 0.507812H0.306152V29.8956H29.6939V0.507812Z" fill="white"/>
</mask>
<g mask="url(#mask0_7_119)">
<path d="M15 3.15386C18.9261 3.15386 19.391 3.17108 20.935 3.23995C22.3699 3.3031 23.1448 3.54417 23.6614 3.74506C24.3444 4.00909 24.8381 4.33052 25.3489 4.84136C25.8655 5.35794 26.1812 5.84582 26.4452 6.52887C26.6461 7.04542 26.8871 7.82603 26.9503 9.25525C27.0192 10.805 27.0364 11.2699 27.0364 15.1902C27.0364 19.1163 27.0192 19.5811 26.9503 21.1252C26.8871 22.5601 26.6461 23.335 26.4452 23.8515C26.1812 24.5346 25.8597 25.0282 25.3489 25.5391C24.8323 26.0556 24.3444 26.3714 23.6614 26.6354C23.1448 26.8362 22.3642 27.0773 20.935 27.1405C19.3852 27.2093 18.9203 27.2265 15 27.2265C11.074 27.2265 10.6091 27.2093 9.06511 27.1405C7.63013 27.0773 6.85528 26.8362 6.33868 26.6354C5.65564 26.3714 5.16202 26.0499 4.65118 25.5391C4.1346 25.0225 3.81891 24.5346 3.55488 23.8515C3.35399 23.335 3.11292 22.5544 3.04977 21.1252C2.9809 19.5754 2.96368 19.1105 2.96368 15.1902C2.96368 11.2642 2.9809 10.7993 3.04977 9.25525C3.11292 7.82034 3.35399 7.04542 3.55488 6.52887C3.81891 5.84582 4.14034 5.3522 4.65118 4.84136C5.16776 4.32478 5.65564 4.00909 6.33868 3.74506C6.85528 3.54417 7.63589 3.3031 9.06511 3.23995C10.6091 3.17108 11.074 3.15386 15 3.15386ZM15 0.507812C11.0109 0.507812 10.5115 0.525032 8.94456 0.593909C7.38334 0.662789 6.30998 0.91534 5.38013 1.27694C4.4101 1.65577 3.58932 2.15514 2.77426 2.97592C1.95348 3.79097 1.45411 4.61177 1.07529 5.57605C0.713678 6.51166 0.461127 7.57923 0.392249 9.14046C0.323372 10.7132 0.306152 11.2125 0.306152 15.2017C0.306152 19.1908 0.323372 19.6902 0.392249 21.2572C0.461127 22.8184 0.713678 23.8918 1.07529 24.8216C1.45411 25.7916 1.95348 26.6124 2.77426 27.4275C3.58932 28.2425 4.41011 28.7476 5.37439 29.1207C6.30998 29.4823 7.37758 29.7348 8.93881 29.8037C10.5058 29.8726 11.0051 29.8898 14.9943 29.8898C18.9835 29.8898 19.4828 29.8726 21.0498 29.8037C22.611 29.7348 23.6844 29.4823 24.6142 29.1207C25.5785 28.7476 26.3993 28.2425 27.2143 27.4275C28.0293 26.6124 28.5345 25.7916 28.9075 24.8273C29.2692 23.8918 29.5217 22.8241 29.5906 21.2629C29.6595 19.6959 29.6767 19.1966 29.6767 15.2074C29.6767 11.2183 29.6595 10.7189 29.5906 9.15197C29.5217 7.59074 29.2692 6.51736 28.9075 5.58753C28.5459 4.61177 28.0466 3.79097 27.2258 2.97592C26.4107 2.16087 25.59 1.65577 24.6257 1.28269C23.6901 0.921077 22.6225 0.668526 21.0613 0.599649C19.4886 0.525032 18.9892 0.507812 15 0.507812Z" fill="white"/>
<path d="M15.0001 7.65381C10.833 7.65381 7.45227 11.0346 7.45227 15.2016C7.45227 19.3687 10.833 22.7494 15.0001 22.7494C19.1671 22.7494 22.5479 19.3687 22.5479 15.2016C22.5479 11.0346 19.1671 7.65381 15.0001 7.65381ZM15.0001 20.0977C12.2967 20.0977 10.104 17.9051 10.104 15.2016C10.104 12.4982 12.2967 10.3056 15.0001 10.3056C17.7035 10.3056 19.8961 12.4982 19.8961 15.2016C19.8961 17.9051 17.7035 20.0977 15.0001 20.0977Z" fill="white"/>
<path d="M24.6084 7.35539C24.6084 8.33112 23.8164 9.11749 22.8463 9.11749C21.8706 9.11749 21.0842 8.32543 21.0842 7.35539C21.0842 6.37959 21.8764 5.59326 22.8463 5.59326C23.8164 5.59326 24.6084 6.38535 24.6084 7.35539Z" fill="white"/>
</g>
</g>
</g>
</g>
<defs>
<clipPath id="clip0_7_119">
<rect width="30" height="30" fill="white"/>
</clipPath>
<clipPath id="clip1_7_119">
<rect width="30" height="30" fill="white"/>
</clipPath>
<clipPath id="clip2_7_119">
<rect width="29.3878" height="30" fill="white" transform="translate(0.306152)"/>
</clipPath>
</defs>
</svg>
