<svg width="315" height="50" viewBox="0 0 315 50" fill="none" xmlns="http://www.w3.org/2000/svg">
<g clip-path="url(#clip0_37_71)">
<g clip-path="url(#clip1_37_71)">
<g clip-path="url(#clip2_37_71)">
<g clip-path="url(#clip3_37_71)">
<g clip-path="url(#clip4_37_71)">
<g clip-path="url(#clip5_37_71)">
<g clip-path="url(#clip6_37_71)">
<path d="M143.413 10.4367H139.516C139.407 9.71437 139.201 9.07352 138.9 8.51416C138.603 7.9548 138.231 7.48132 137.785 7.09373C137.343 6.70173 136.838 6.40443 136.271 6.20183C135.703 6.00363 135.093 5.90453 134.44 5.90453C133.282 5.90453 132.255 6.23046 131.359 6.88232C130.463 7.53858 129.76 8.49434 129.252 9.7496C128.747 11.0049 128.495 12.5354 128.495 14.3412C128.495 16.1779 128.749 17.7238 129.258 18.9791C129.77 20.2344 130.472 21.1813 131.364 21.82C132.257 22.4542 133.28 22.7713 134.434 22.7713C135.072 22.7713 135.67 22.6766 136.23 22.4872C136.789 22.2934 137.292 22.0093 137.738 21.635C138.188 21.2606 138.567 20.8003 138.876 20.2542C139.185 19.7036 139.399 19.0782 139.516 18.3779L143.413 18.3977C143.268 19.5385 142.955 20.6109 142.474 21.6151C141.989 22.615 141.357 23.4958 140.578 24.2578C139.8 25.0198 138.89 25.6144 137.849 26.0416C136.809 26.4688 135.653 26.6825 134.381 26.6825C132.503 26.6825 130.828 26.1936 129.357 25.2158C127.886 24.238 126.726 22.8264 125.877 20.9809C125.028 19.1355 124.604 16.9222 124.604 14.3412C124.604 11.7514 125.032 9.53599 125.889 7.69493C126.742 5.85388 127.906 4.44446 129.381 3.46668C130.852 2.48889 132.519 2 134.381 2C135.566 2 136.67 2.18719 137.691 2.56157C138.712 2.93594 139.624 3.4865 140.426 4.21323C141.224 4.93556 141.881 5.81865 142.398 6.8625C142.914 7.90635 143.252 9.09775 143.413 10.4367ZM155.397 7.25229L149.704 26.3521H145.578L153.09 2.33033H157.867L165.391 26.3521H161.265L155.561 7.25229H155.397ZM149.845 20.426V16.931H161.095V20.426H149.845ZM172.07 26.3521H168.202V2.33033H176.201C177.841 2.33033 179.218 2.64965 180.333 3.2883C181.448 3.93134 182.293 4.82985 182.868 5.98381C183.439 7.13777 183.725 8.48113 183.725 10.0139C183.725 11.551 183.435 12.8856 182.856 14.0175C182.277 15.1494 181.424 16.0215 180.298 16.6337C179.175 17.246 177.794 17.5521 176.154 17.5521H170.45V13.9382H175.632C176.591 13.9382 177.375 13.7885 177.985 13.489C178.596 13.1895 179.05 12.7468 179.347 12.161C179.64 11.5796 179.787 10.8639 179.787 10.0139C179.787 9.15941 179.638 8.42827 179.341 7.82046C179.044 7.21705 178.588 6.75679 177.974 6.43967C177.363 6.12255 176.575 5.96399 175.609 5.96399H172.07V26.3521ZM175.004 15.4644H179.224L184.511 26.3521H180.192L175.004 15.4644ZM194.57 26.3521V2.33033H199.3L205.639 19.7389H205.891L212.223 2.33033H216.953V26.3521H213.244V9.8487H213.045L207.147 26.2794H204.377L198.479 9.80906H198.279V26.3521H194.57ZM229.595 7.25229L223.902 26.3521H219.776L227.288 2.33033H232.065L239.583 26.3521H235.457L229.759 7.25229H229.595ZM224.037 20.426V16.931H235.293V20.426H224.037ZM246.262 26.3521H242.4V2.33033H250.399C252.038 2.33033 253.416 2.64965 254.531 3.2883C255.646 3.93134 256.491 4.82985 257.066 5.98381C257.637 7.13777 257.923 8.48113 257.923 10.0139C257.923 11.551 257.633 12.8856 257.054 14.0175C256.475 15.1494 255.622 16.0215 254.495 16.6337C253.369 17.246 251.986 17.5521 250.346 17.5521H244.648V13.9382H249.83C250.788 13.9382 251.573 13.7885 252.183 13.489C252.794 13.1895 253.247 12.7468 253.545 12.161C253.838 11.5796 253.985 10.8639 253.985 10.0139C253.985 9.15941 253.836 8.42827 253.539 7.82046C253.238 7.21705 252.782 6.75679 252.171 6.43967C251.561 6.12255 250.773 5.96399 249.806 5.96399H246.262V26.3521ZM249.202 15.4644H253.421L258.703 26.3521H254.39L249.202 15.4644ZM265.353 26.3521H261.485V2.33033H265.353V13.3634H265.611L273.938 2.33033H278.657L270.405 13.1058L278.733 26.3521H274.085L267.718 16.0523L265.353 19.1971V26.3521ZM295.306 26.3521H281.345V2.33033H295.224V5.9772H285.212V12.498H294.508V16.1448H285.212V22.7052H295.306V26.3521ZM304.831 5.9772H298.235V2.33033H315.26V5.9772H308.663V26.3521H304.831V5.9772Z" fill="white"/>
</g>
</g>
<g clip-path="url(#clip7_37_71)">
<g clip-path="url(#clip8_37_71)">
<path d="M125.444 45.1919V38.6221H124.734C124.677 38.5967 124.641 38.5523 124.626 38.4888C124.608 38.4254 124.599 38.3682 124.599 38.3174C124.599 38.1905 124.627 38.1042 124.683 38.0585C124.739 38.0153 124.813 37.9645 124.903 37.9061C124.993 37.8503 125.098 37.7716 125.218 37.67C125.335 37.5684 125.456 37.4034 125.58 37.1749C125.659 37.0098 125.721 36.8093 125.766 36.5731C125.811 36.3395 125.859 36.1148 125.911 35.899C125.961 35.6832 126.023 35.4991 126.097 35.3468C126.169 35.1944 126.268 35.1183 126.392 35.1183C126.482 35.1183 126.581 35.1246 126.689 35.1373C126.795 35.15 126.871 35.169 126.916 35.1944V37.5557H128.523C128.67 37.5557 128.763 37.5875 128.804 37.6509C128.842 37.7144 128.861 37.7969 128.861 37.8985C128.861 38.0508 128.814 38.2057 128.719 38.3632C128.622 38.5231 128.495 38.6094 128.337 38.6221H126.916V43.4781C126.916 43.9351 126.922 44.2906 126.933 44.5445C126.944 44.7984 126.976 44.9888 127.028 45.1157C127.077 45.2427 127.155 45.3214 127.261 45.3519C127.369 45.3849 127.525 45.4014 127.728 45.4014C127.886 45.4014 128.053 45.3658 128.229 45.2947C128.402 45.2262 128.585 45.1919 128.777 45.1919C128.946 45.1919 129.042 45.2389 129.064 45.3328C129.087 45.4293 129.098 45.4902 129.098 45.5156C129.098 45.668 129.014 45.8076 128.844 45.9346C128.675 46.0615 128.464 46.1694 128.212 46.2583C127.957 46.3472 127.677 46.4145 127.373 46.4602C127.068 46.5033 126.786 46.5249 126.527 46.5249C126.245 46.5249 125.995 46.4107 125.776 46.1821C125.555 45.9536 125.444 45.6235 125.444 45.1919ZM129.825 45.8965C129.825 45.833 129.862 45.7721 129.934 45.7137C130.008 45.6578 130.096 45.6045 130.198 45.5537C130.299 45.5029 130.401 45.456 130.502 45.4128C130.604 45.3671 130.677 45.3316 130.722 45.3062V33.7281C130.474 33.69 130.279 33.6329 130.137 33.5567C129.997 33.4806 129.927 33.4044 129.927 33.3282C129.927 33.1505 129.991 33.0108 130.12 32.9093C130.251 32.8077 130.414 32.7252 130.61 32.6617C130.809 32.5983 131.017 32.5564 131.236 32.536C131.457 32.5183 131.652 32.5094 131.822 32.5094C131.912 32.5094 131.993 32.5157 132.065 32.5284C132.14 32.5411 132.188 32.5919 132.211 32.6808V38.3174C132.594 38.0001 133.002 37.7335 133.435 37.5176C133.871 37.3018 134.342 37.1939 134.849 37.1939C135.233 37.1939 135.59 37.2472 135.922 37.3539C136.256 37.4631 136.513 37.6954 136.693 38.0508H136.659C136.885 38.3682 137.017 38.6945 137.055 39.0297C137.096 39.3673 137.116 39.6949 137.116 40.0123V44.8682C137.116 45.0586 137.184 45.1881 137.319 45.2567C137.454 45.3277 137.603 45.3798 137.766 45.4128C137.93 45.4433 138.08 45.4839 138.216 45.5347C138.351 45.5855 138.419 45.6934 138.419 45.8584C138.419 45.9219 138.374 46.0069 138.283 46.1136C138.193 46.2228 138.047 46.2774 137.844 46.2774H135.103C134.968 46.2774 134.88 46.2329 134.839 46.1441C134.801 46.0552 134.782 45.9727 134.782 45.8965C134.782 45.833 134.818 45.7721 134.89 45.7137C134.964 45.6578 135.052 45.607 135.154 45.5613C135.255 45.5182 135.354 45.4737 135.448 45.428C135.545 45.3849 135.616 45.3506 135.661 45.3252V40.774C135.661 39.8853 135.526 39.2569 135.255 38.8887C134.985 38.5206 134.624 38.3365 134.173 38.3365C133.835 38.3365 133.487 38.4025 133.131 38.5345C132.777 38.6691 132.47 38.8633 132.211 39.1172V44.8682C132.211 45.0586 132.278 45.1881 132.414 45.2567C132.549 45.3277 132.701 45.3798 132.87 45.4128C133.039 45.4433 133.192 45.4839 133.327 45.5347C133.462 45.5855 133.53 45.6934 133.53 45.8584C133.53 46.1377 133.338 46.2774 132.955 46.2774H130.147C130.012 46.2774 129.924 46.2329 129.883 46.1441C129.845 46.0552 129.825 45.9727 129.825 45.8965ZM139.028 42.4307C139.028 41.6944 139.118 41.0088 139.298 40.3741C139.479 39.7393 139.735 39.1871 140.066 38.7173C140.4 38.2476 140.806 37.8757 141.284 37.6014C141.765 37.3298 142.298 37.1939 142.884 37.1939C143.527 37.1939 144.04 37.3361 144.424 37.6205C144.807 37.9074 145.103 38.273 145.31 38.7173C145.52 39.1617 145.659 39.6466 145.726 40.1722C145.792 40.7003 145.831 41.212 145.845 41.7071C145.845 41.8975 145.771 42.0054 145.625 42.0308C145.478 42.0562 145.326 42.0689 145.168 42.0689H140.584C140.606 42.5005 140.665 42.9195 140.76 43.3257C140.857 43.732 140.998 44.0938 141.183 44.4112C141.37 44.7285 141.607 44.985 141.893 45.1805C142.182 45.3785 142.518 45.4776 142.901 45.4776C143.319 45.4776 143.657 45.442 143.916 45.3709C144.173 45.3024 144.387 45.2262 144.556 45.1424C144.725 45.0611 144.869 44.985 144.989 44.9139C145.108 44.8453 145.236 44.8111 145.371 44.8111C145.529 44.8111 145.608 44.8809 145.608 45.0205C145.608 45.1856 145.523 45.3595 145.354 45.5423C145.185 45.7276 144.956 45.899 144.667 46.0565C144.381 46.2164 144.048 46.3446 143.669 46.4411C143.293 46.5351 142.896 46.582 142.478 46.582C141.881 46.582 141.364 46.4678 140.929 46.2393C140.496 46.0108 140.138 45.7061 139.857 45.3252C139.575 44.9444 139.366 44.5026 139.231 43.9998C139.095 43.4996 139.028 42.9766 139.028 42.4307ZM140.584 41.212L144.17 41.0787C144.159 40.6851 144.131 40.3144 144.085 39.9666C144.04 39.6162 143.956 39.314 143.832 39.0601C143.708 38.8062 143.527 38.6031 143.29 38.4507C143.054 38.2984 142.743 38.2222 142.36 38.2222C141.796 38.2222 141.37 38.5041 141.081 39.0677C140.795 39.6339 140.629 40.3487 140.584 41.212ZM151.339 45.8965C151.339 45.833 151.376 45.7721 151.451 45.7137C151.523 45.6578 151.61 45.6045 151.711 45.5537C151.813 45.5029 151.914 45.456 152.016 45.4128C152.117 45.3671 152.19 45.3316 152.235 45.3062V33.7281C151.987 33.69 151.793 33.6329 151.654 33.5567C151.511 33.4806 151.44 33.4044 151.44 33.3282C151.44 33.1505 151.506 33.0108 151.637 32.9093C151.765 32.8077 151.929 32.7252 152.127 32.6617C152.323 32.5983 152.532 32.5564 152.753 32.536C152.972 32.5183 153.166 32.5094 153.335 32.5094C153.425 32.5094 153.508 32.5157 153.582 32.5284C153.654 32.5411 153.701 32.5919 153.724 32.6808V38.3174C154.107 38.0001 154.517 37.7335 154.952 37.5176C155.385 37.3018 155.855 37.1939 156.363 37.1939C156.746 37.1939 157.105 37.2472 157.439 37.3539C157.77 37.4631 158.026 37.6954 158.207 38.0508H158.173C158.398 38.3682 158.531 38.6945 158.572 39.0297C158.61 39.3673 158.63 39.6949 158.63 40.0123V44.8682C158.63 45.0586 158.697 45.1881 158.833 45.2567C158.968 45.3277 159.118 45.3798 159.283 45.4128C159.445 45.4433 159.594 45.4839 159.729 45.5347C159.864 45.5855 159.932 45.6934 159.932 45.8584C159.932 45.9219 159.887 46.0069 159.797 46.1136C159.707 46.2228 159.56 46.2774 159.357 46.2774H156.617C156.481 46.2774 156.394 46.2329 156.356 46.1441C156.316 46.0552 156.295 45.9727 156.295 45.8965C156.295 45.833 156.332 45.7721 156.407 45.7137C156.479 45.6578 156.566 45.607 156.667 45.5613C156.769 45.5182 156.868 45.4737 156.965 45.428C157.06 45.3849 157.13 45.3506 157.175 45.3252V40.774C157.175 39.8853 157.04 39.2569 156.769 38.8887C156.498 38.5206 156.137 38.3365 155.686 38.3365C155.348 38.3365 155.002 38.4025 154.648 38.5345C154.291 38.6691 153.983 38.8633 153.724 39.1172V44.8682C153.724 45.0586 153.792 45.1881 153.927 45.2567C154.062 45.3277 154.215 45.3798 154.384 45.4128C154.553 45.4433 154.705 45.4839 154.84 45.5347C154.976 45.5855 155.043 45.6934 155.043 45.8584C155.043 46.1377 154.852 46.2774 154.468 46.2774H151.66C151.525 46.2774 151.438 46.2329 151.4 46.1441C151.359 46.0552 151.339 45.9727 151.339 45.8965ZM160.575 44.354C160.575 43.7827 160.705 43.3003 160.964 42.9068C161.223 42.5132 161.567 42.1857 161.996 41.9242C162.424 41.6652 162.912 41.4659 163.457 41.3262C164.005 41.1866 164.567 41.0914 165.142 41.0406V40.6216C165.142 40.3169 165.125 40.0123 165.091 39.7076C165.058 39.4029 164.979 39.1236 164.855 38.8697C164.719 38.6158 164.535 38.4533 164.303 38.3822C164.073 38.3136 163.845 38.2794 163.62 38.2794C163.315 38.2794 163.078 38.2882 162.909 38.306C162.74 38.3263 162.613 38.3619 162.527 38.4127C162.444 38.4634 162.393 38.5358 162.375 38.6298C162.359 38.7262 162.351 38.857 162.351 39.022C162.351 39.1998 162.37 39.3102 162.409 39.3534C162.449 39.3991 162.469 39.4537 162.469 39.5171C162.469 39.6187 162.432 39.7228 162.358 39.8294C162.286 39.9386 162.195 40.0338 162.087 40.1151C161.981 40.1989 161.863 40.2662 161.732 40.3169C161.603 40.3677 161.483 40.3931 161.37 40.3931C161.111 40.3931 160.953 40.3068 160.896 40.1341C160.84 39.964 160.812 39.8155 160.812 39.6885C160.812 39.3838 160.944 39.0855 161.208 38.7935C161.474 38.5015 161.795 38.2349 162.172 37.9937C162.551 37.7525 162.943 37.5583 163.349 37.411C163.755 37.2663 164.099 37.1939 164.381 37.1939C164.855 37.1939 165.24 37.2764 165.538 37.4415C165.838 37.6065 166.067 37.8223 166.225 38.0889C166.383 38.3555 166.49 38.6564 166.546 38.9916C166.603 39.3293 166.631 39.6695 166.631 40.0123V45.4585C166.755 45.4585 166.884 45.4293 167.02 45.3709C167.155 45.3151 167.29 45.2871 167.426 45.2871C167.55 45.2871 167.631 45.3125 167.669 45.3633C167.71 45.4141 167.73 45.4839 167.73 45.5728C167.73 45.6235 167.685 45.7023 167.595 45.8089C167.505 45.9181 167.377 46.0298 167.213 46.1441C167.05 46.2583 166.862 46.3599 166.648 46.4487C166.433 46.5376 166.197 46.582 165.937 46.582C165.723 46.582 165.537 46.5313 165.379 46.4297C165.221 46.3281 165.142 46.1567 165.142 45.9155V45.1919C164.849 45.5982 164.528 45.9308 164.178 46.1898C163.828 46.4513 163.405 46.582 162.909 46.582C162.492 46.582 162.133 46.5122 161.833 46.3726C161.536 46.2329 161.293 46.0514 161.106 45.8279C160.921 45.607 160.786 45.3658 160.7 45.1043C160.617 44.8453 160.575 44.5952 160.575 44.354ZM162.165 43.7256C162.165 44.2334 162.278 44.6587 162.503 45.0015C162.729 45.3443 163.146 45.5156 163.755 45.5156C163.981 45.5156 164.22 45.4204 164.472 45.23C164.727 45.0396 164.95 44.792 165.142 44.4873V41.9165C164.826 41.9292 164.494 41.9635 164.144 42.0194C163.795 42.0778 163.473 42.1704 163.18 42.2974C162.887 42.4244 162.644 42.6021 162.453 42.8306C162.261 43.0591 162.165 43.3575 162.165 43.7256ZM168.61 45.8965C168.61 45.833 168.646 45.7721 168.718 45.7137C168.793 45.6578 168.881 45.6045 168.982 45.5537C169.084 45.5029 169.185 45.456 169.287 45.4128C169.388 45.3671 169.461 45.3316 169.506 45.3062V39.0411C169.281 38.9903 169.05 38.9078 168.813 38.7935C168.576 38.6793 168.458 38.5777 168.458 38.4888C168.458 38.3619 168.525 38.2311 168.661 38.0966C168.796 37.9645 168.962 37.8477 169.158 37.7462C169.356 37.6446 169.568 37.5583 169.794 37.4872C170.02 37.4186 170.217 37.3843 170.386 37.3843C170.476 37.3843 170.561 37.397 170.64 37.4224C170.719 37.4478 170.769 37.4986 170.792 37.5748V39.3458C171.029 38.7491 171.336 38.2413 171.712 37.8223C172.091 37.4034 172.534 37.1939 173.042 37.1939C173.143 37.1939 173.27 37.213 173.421 37.251C173.574 37.2891 173.726 37.3615 173.877 37.4681C174.031 37.5773 174.161 37.7271 174.267 37.9175C174.375 38.108 174.429 38.3492 174.429 38.6412C174.429 38.7554 174.395 38.8659 174.327 38.9725C174.26 39.0817 174.175 39.1769 174.074 39.2582C173.972 39.342 173.862 39.4118 173.742 39.4676C173.625 39.526 173.51 39.5616 173.397 39.5743C173.307 39.5743 173.23 39.5514 173.167 39.5057C173.106 39.4626 173.064 39.3521 173.042 39.1744C172.985 38.8824 172.903 38.692 172.795 38.6031C172.689 38.5142 172.529 38.4698 172.314 38.4698C172.157 38.4698 171.999 38.5587 171.841 38.7364C171.683 38.9141 171.539 39.1338 171.408 39.3953C171.279 39.6543 171.172 39.9259 171.086 40.2103C171.003 40.4972 170.961 40.7486 170.961 40.9644V44.9063C170.961 45.084 171.046 45.2008 171.215 45.2567C171.384 45.3151 171.567 45.3595 171.763 45.39C171.961 45.423 172.142 45.4674 172.304 45.5233C172.469 45.5817 172.551 45.6934 172.551 45.8584C172.551 46.1377 172.36 46.2774 171.976 46.2774H168.931C168.796 46.2774 168.708 46.2329 168.667 46.1441C168.629 46.0552 168.61 45.9727 168.61 45.8965ZM175.102 42.564C175.102 41.9419 175.19 41.3097 175.366 40.6673C175.54 40.0275 175.805 39.4499 176.161 38.9344C176.515 38.4215 176.961 38.0026 177.497 37.6776C178.032 37.3552 178.666 37.1939 179.399 37.1939C179.872 37.1939 180.312 37.2637 180.718 37.4034L180.634 35.6515V33.8614C180.51 33.836 180.369 33.8106 180.211 33.7853C180.053 33.7599 179.906 33.7281 179.771 33.69C179.636 33.652 179.521 33.6139 179.426 33.5758C179.329 33.5377 179.28 33.4996 179.28 33.4615C179.28 33.2965 179.351 33.1543 179.493 33.035C179.633 32.9131 179.819 32.8141 180.052 32.7379C180.282 32.6617 180.538 32.6046 180.82 32.5665C181.102 32.5284 181.384 32.5094 181.665 32.5094C181.744 32.5094 181.823 32.5157 181.902 32.5284C181.981 32.5411 182.032 32.5919 182.055 32.6808V45.4585C182.167 45.4585 182.286 45.4357 182.41 45.39C182.534 45.3468 182.664 45.3252 182.799 45.3252C182.9 45.3252 182.968 45.3506 183.002 45.4014C183.036 45.4522 183.053 45.522 183.053 45.6109C183.053 45.6616 183.013 45.7403 182.934 45.847C182.855 45.9562 182.746 46.0641 182.606 46.1707C182.464 46.2799 182.291 46.3764 182.088 46.4602C181.885 46.5414 181.654 46.582 181.395 46.582C180.944 46.582 180.718 46.3599 180.718 45.9155V45.4204C180.402 45.7886 180.058 46.0742 179.686 46.2774C179.314 46.4805 178.863 46.582 178.333 46.582C177.916 46.582 177.513 46.4906 177.125 46.3078C176.735 46.1225 176.391 45.8584 176.093 45.5156C175.793 45.1729 175.553 44.7539 175.373 44.2588C175.192 43.7637 175.102 43.1988 175.102 42.564ZM179.077 45.5347C179.325 45.5347 179.59 45.4737 179.872 45.3519C180.154 45.2325 180.414 45.0523 180.651 44.8111L180.634 39.022C180.532 38.857 180.402 38.7262 180.245 38.6298C180.087 38.5358 179.921 38.4634 179.747 38.4127C179.571 38.3619 179.399 38.3301 179.23 38.3174C179.06 38.3048 178.919 38.2984 178.807 38.2984C178.051 38.2984 177.519 38.5967 177.21 39.1934C176.899 39.7901 176.743 40.647 176.743 41.7642C176.743 42.8814 176.938 43.7891 177.328 44.4873C177.716 45.1856 178.299 45.5347 179.077 45.5347ZM184.068 42.4307C184.068 41.6944 184.158 41.0088 184.338 40.3741C184.519 39.7393 184.776 39.1871 185.11 38.7173C185.441 38.2476 185.847 37.8757 186.327 37.6014C186.806 37.3298 187.338 37.1939 187.924 37.1939C188.567 37.1939 189.08 37.3361 189.464 37.6205C189.847 37.9074 190.144 38.273 190.353 38.7173C190.561 39.1617 190.698 39.6466 190.766 40.1722C190.834 40.7003 190.873 41.212 190.885 41.7071C190.885 41.8975 190.811 42.0054 190.665 42.0308C190.518 42.0562 190.366 42.0689 190.208 42.0689H185.624C185.646 42.5005 185.706 42.9195 185.803 43.3257C185.898 43.732 186.039 44.0938 186.226 44.4112C186.411 44.7285 186.648 44.985 186.936 45.1805C187.223 45.3785 187.558 45.4776 187.941 45.4776C188.358 45.4776 188.697 45.442 188.956 45.3709C189.216 45.3024 189.43 45.2262 189.599 45.1424C189.768 45.0611 189.912 44.985 190.032 44.9139C190.149 44.8453 190.276 44.8111 190.411 44.8111C190.569 44.8111 190.648 44.8809 190.648 45.0205C190.648 45.1856 190.563 45.3595 190.394 45.5423C190.225 45.7276 189.997 45.899 189.711 46.0565C189.422 46.2164 189.089 46.3446 188.713 46.4411C188.334 46.5351 187.936 46.582 187.518 46.582C186.921 46.582 186.405 46.4678 185.972 46.2393C185.537 46.0108 185.178 45.7061 184.896 45.3252C184.614 44.9444 184.406 44.5026 184.27 43.9998C184.135 43.4996 184.068 42.9766 184.068 42.4307ZM185.624 41.212L189.21 41.0787C189.199 40.6851 189.17 40.3144 189.125 39.9666C189.08 39.6162 188.996 39.314 188.872 39.0601C188.748 38.8062 188.567 38.6031 188.33 38.4507C188.093 38.2984 187.783 38.2222 187.4 38.2222C186.836 38.2222 186.411 38.5041 186.124 39.0677C185.836 39.6339 185.669 40.3487 185.624 41.212ZM192.39 45.4395C192.401 45.2744 192.407 45.0738 192.407 44.8377C192.407 44.6041 192.415 44.382 192.431 44.1712C192.449 43.963 192.488 43.7853 192.549 43.638C192.612 43.4933 192.711 43.4209 192.847 43.4209C192.914 43.4209 192.973 43.4679 193.023 43.5618C193.075 43.6583 193.123 43.7726 193.168 43.9046C193.213 44.0392 193.255 44.1699 193.293 44.2969C193.334 44.4238 193.371 44.5254 193.405 44.6016C193.529 44.8555 193.772 45.0929 194.132 45.3138C194.493 45.5372 194.905 45.6489 195.367 45.6489C195.66 45.6489 195.933 45.5474 196.186 45.3443C196.441 45.1411 196.568 44.8555 196.568 44.4873C196.568 44.1319 196.467 43.8399 196.264 43.6114C196.061 43.3828 195.809 43.1797 195.509 43.002C195.212 42.8243 194.888 42.6554 194.538 42.4954C194.189 42.338 193.864 42.1514 193.564 41.9356C193.266 41.7198 193.016 41.4557 192.813 41.1434C192.61 40.8336 192.508 40.4376 192.508 39.9551C192.508 39.5235 192.599 39.1363 192.779 38.7935C192.96 38.4507 193.193 38.1613 193.479 37.9252C193.768 37.6916 194.093 37.5113 194.454 37.3843C194.815 37.2574 195.17 37.1939 195.519 37.1939C196.196 37.1939 196.692 37.3171 197.008 37.5634C197.324 37.8122 197.482 38.0635 197.482 38.3174C197.482 38.4444 197.482 38.6056 197.482 38.8011C197.482 38.9992 197.47 39.1896 197.448 39.3724C197.425 39.5578 197.386 39.7139 197.329 39.8409C197.273 39.9678 197.188 40.0313 197.076 40.0313C197.008 40.0313 196.943 39.9805 196.879 39.879C196.819 39.7774 196.766 39.6695 196.72 39.5552C196.664 39.4156 196.613 39.2569 196.568 39.0792C196.467 38.7872 196.294 38.5739 196.051 38.4393C195.809 38.3073 195.373 38.2413 194.741 38.2413C194.493 38.2413 194.27 38.32 194.071 38.4774C193.875 38.6374 193.777 38.9141 193.777 39.3077C193.777 39.6378 193.879 39.9132 194.082 40.1341C194.285 40.3576 194.541 40.5582 194.85 40.7359C195.161 40.9136 195.497 41.0875 195.858 41.2577C196.219 41.4303 196.554 41.6334 196.863 41.867C197.174 42.1032 197.431 42.3825 197.634 42.7049C197.837 43.0299 197.938 43.44 197.938 43.9351C197.938 44.3667 197.845 44.7476 197.658 45.0777C197.473 45.4077 197.23 45.6832 196.93 45.9041C196.633 46.1275 196.294 46.2964 195.915 46.4107C195.539 46.5249 195.164 46.582 194.792 46.582C194.578 46.582 194.352 46.5541 194.115 46.4983C193.879 46.4399 193.647 46.3624 193.422 46.2659C193.196 46.172 192.993 46.0514 192.813 45.9041C192.633 45.7594 192.492 45.6045 192.39 45.4395ZM199.884 45.1919V38.6221H199.173C199.117 38.5967 199.08 38.5523 199.062 38.4888C199.046 38.4254 199.038 38.3682 199.038 38.3174C199.038 38.1905 199.066 38.1042 199.123 38.0585C199.179 38.0153 199.252 37.9645 199.342 37.9061C199.433 37.8503 199.536 37.7716 199.654 37.67C199.773 37.5684 199.895 37.4034 200.019 37.1749C200.098 37.0098 200.16 36.8093 200.205 36.5731C200.25 36.3395 200.298 36.1148 200.347 35.899C200.399 35.6832 200.461 35.4991 200.533 35.3468C200.608 35.1944 200.707 35.1183 200.831 35.1183C200.921 35.1183 201.019 35.1246 201.125 35.1373C201.234 35.15 201.31 35.169 201.355 35.1944V37.5557H202.962C203.109 37.5557 203.201 37.5875 203.24 37.6509C203.28 37.7144 203.301 37.7969 203.301 37.8985C203.301 38.0508 203.252 38.2057 203.155 38.3632C203.061 38.5231 202.934 38.6094 202.776 38.6221H201.355V43.4781C201.355 43.9351 201.361 44.2906 201.372 44.5445C201.384 44.7984 201.414 44.9888 201.464 45.1157C201.516 45.2427 201.594 45.3214 201.7 45.3519C201.809 45.3849 201.964 45.4014 202.167 45.4014C202.325 45.4014 202.491 45.3658 202.665 45.2947C202.841 45.2262 203.024 45.1919 203.216 45.1919C203.385 45.1919 203.481 45.2389 203.504 45.3328C203.526 45.4293 203.538 45.4902 203.538 45.5156C203.538 45.668 203.453 45.8076 203.284 45.9346C203.115 46.0615 202.903 46.1694 202.648 46.2583C202.395 46.3472 202.117 46.4145 201.812 46.4602C201.508 46.5033 201.226 46.5249 200.966 46.5249C200.684 46.5249 200.433 46.4107 200.212 46.1821C199.993 45.9536 199.884 45.6235 199.884 45.1919ZM208.93 42.4307C208.93 41.6436 209.024 40.9289 209.211 40.2865C209.396 39.6466 209.658 39.0982 209.996 38.6412C210.334 38.1841 210.746 37.8287 211.231 37.5748C211.716 37.3209 212.263 37.1939 212.872 37.1939C213.075 37.1939 213.3 37.2193 213.548 37.2701C213.796 37.3209 214.025 37.4123 214.235 37.5443C214.443 37.6789 214.617 37.8541 214.759 38.0699C214.899 38.2857 214.969 38.565 214.969 38.9078C214.969 39.1109 214.933 39.2848 214.861 39.4296C214.786 39.5768 214.693 39.6974 214.58 39.7914C214.467 39.8878 214.343 39.964 214.208 40.0199C214.073 40.0783 213.937 40.1202 213.802 40.1456C213.701 40.1456 213.616 40.11 213.548 40.0389C213.481 39.9704 213.435 39.8218 213.413 39.5933C213.357 39.0093 213.249 38.6247 213.092 38.4393C212.934 38.2565 212.686 38.1651 212.347 38.1651C212.009 38.1651 211.721 38.2565 211.485 38.4393C211.248 38.6247 211.056 38.8798 210.909 39.2048C210.763 39.5273 210.656 39.9005 210.588 40.3246C210.52 40.7511 210.487 41.212 210.487 41.7071C210.487 42.1641 210.532 42.6173 210.622 43.0667C210.712 43.5187 210.853 43.9224 211.045 44.2779C211.236 44.6333 211.485 44.9215 211.789 45.1424C212.094 45.3658 212.46 45.4776 212.889 45.4776C213.114 45.4776 213.298 45.4357 213.44 45.3519C213.58 45.2706 213.71 45.1818 213.829 45.0853C213.946 44.9913 214.07 44.9063 214.201 44.8301C214.33 44.7539 214.496 44.7158 214.699 44.7158C214.845 44.7158 214.947 44.7438 215.003 44.7996C215.059 44.858 215.088 44.919 215.088 44.9824C215.088 45.1729 215.001 45.3633 214.827 45.5537C214.651 45.7442 214.431 45.9155 214.167 46.0679C213.901 46.2202 213.616 46.3446 213.311 46.4411C213.007 46.5351 212.725 46.582 212.466 46.582C211.868 46.582 211.347 46.4678 210.903 46.2393C210.456 46.0108 210.086 45.7061 209.793 45.3252C209.5 44.9444 209.283 44.5026 209.143 43.9998C209.001 43.4996 208.93 42.9766 208.93 42.4307ZM216.136 44.354C216.136 43.7827 216.266 43.3003 216.525 42.9068C216.785 42.5132 217.129 42.1857 217.557 41.9242C217.986 41.6652 218.473 41.4659 219.019 41.3262C219.567 41.1866 220.128 41.0914 220.704 41.0406V40.6216C220.704 40.3169 220.687 40.0123 220.653 39.7076C220.619 39.4029 220.54 39.1236 220.416 38.8697C220.281 38.6158 220.097 38.4533 219.865 38.3822C219.635 38.3136 219.407 38.2794 219.181 38.2794C218.877 38.2794 218.64 38.2882 218.471 38.306C218.302 38.3263 218.174 38.3619 218.088 38.4127C218.005 38.4634 217.954 38.5358 217.936 38.6298C217.92 38.7262 217.913 38.857 217.913 39.022C217.913 39.1998 217.932 39.3102 217.97 39.3534C218.011 39.3991 218.031 39.4537 218.031 39.5171C218.031 39.6187 217.994 39.7228 217.919 39.8294C217.847 39.9386 217.757 40.0338 217.649 40.1151C217.543 40.1989 217.424 40.2662 217.293 40.3169C217.165 40.3677 217.044 40.3931 216.931 40.3931C216.672 40.3931 216.514 40.3068 216.458 40.1341C216.401 39.964 216.373 39.8155 216.373 39.6885C216.373 39.3838 216.505 39.0855 216.769 38.7935C217.035 38.5015 217.357 38.2349 217.733 37.9937C218.112 37.7525 218.505 37.5583 218.911 37.411C219.317 37.2663 219.66 37.1939 219.942 37.1939C220.416 37.1939 220.802 37.2764 221.099 37.4415C221.399 37.6065 221.628 37.8223 221.786 38.0889C221.944 38.3555 222.051 38.6564 222.108 38.9916C222.164 39.3293 222.192 39.6695 222.192 40.0123V45.4585C222.316 45.4585 222.446 45.4293 222.581 45.3709C222.717 45.3151 222.852 45.2871 222.987 45.2871C223.111 45.2871 223.193 45.3125 223.231 45.3633C223.271 45.4141 223.292 45.4839 223.292 45.5728C223.292 45.6235 223.247 45.7023 223.156 45.8089C223.066 45.9181 222.939 46.0298 222.774 46.1441C222.612 46.2583 222.423 46.3599 222.209 46.4487C221.995 46.5376 221.758 46.582 221.499 46.582C221.284 46.582 221.098 46.5313 220.94 46.4297C220.783 46.3281 220.704 46.1567 220.704 45.9155V45.1919C220.41 45.5982 220.089 45.9308 219.739 46.1898C219.39 46.4513 218.967 46.582 218.471 46.582C218.053 46.582 217.695 46.5122 217.395 46.3726C217.097 46.2329 216.855 46.0514 216.668 45.8279C216.483 45.607 216.347 45.3658 216.262 45.1043C216.178 44.8453 216.136 44.5952 216.136 44.354ZM217.726 43.7256C217.726 44.2334 217.839 44.6587 218.065 45.0015C218.29 45.3443 218.708 45.5156 219.317 45.5156C219.542 45.5156 219.781 45.4204 220.034 45.23C220.289 45.0396 220.512 44.792 220.704 44.4873V41.9165C220.388 41.9292 220.055 41.9635 219.706 42.0194C219.356 42.0778 219.035 42.1704 218.741 42.2974C218.448 42.4244 218.206 42.6021 218.014 42.8306C217.822 43.0591 217.726 43.3575 217.726 43.7256ZM224.171 45.8965C224.171 45.833 224.207 45.7721 224.28 45.7137C224.354 45.6578 224.442 45.6045 224.543 45.5537C224.645 45.5029 224.746 45.456 224.848 45.4128C224.949 45.3671 225.023 45.3316 225.068 45.3062V39.0411C224.842 38.9903 224.611 38.9078 224.374 38.7935C224.138 38.6793 224.019 38.5777 224.019 38.4888C224.019 38.3619 224.087 38.2311 224.222 38.0966C224.357 37.9645 224.523 37.8477 224.719 37.7462C224.918 37.6446 225.13 37.5583 225.355 37.4872C225.581 37.4186 225.778 37.3843 225.948 37.3843C226.038 37.3843 226.122 37.397 226.201 37.4224C226.28 37.4478 226.331 37.4986 226.353 37.5748V39.3458C226.59 38.7491 226.897 38.2413 227.274 37.8223C227.653 37.4034 228.096 37.1939 228.603 37.1939C228.705 37.1939 228.831 37.213 228.982 37.251C229.136 37.2891 229.288 37.3615 229.439 37.4681C229.592 37.5773 229.722 37.7271 229.828 37.9175C229.936 38.108 229.99 38.3492 229.99 38.6412C229.99 38.7554 229.957 38.8659 229.889 38.9725C229.821 39.0817 229.737 39.1769 229.635 39.2582C229.534 39.342 229.423 39.4118 229.304 39.4676C229.186 39.526 229.071 39.5616 228.959 39.5743C228.868 39.5743 228.792 39.5514 228.728 39.5057C228.668 39.4626 228.626 39.3521 228.603 39.1744C228.547 38.8824 228.465 38.692 228.356 38.6031C228.25 38.5142 228.09 38.4698 227.876 38.4698C227.718 38.4698 227.56 38.5587 227.402 38.7364C227.244 38.9141 227.1 39.1338 226.969 39.3953C226.841 39.6543 226.734 39.9259 226.648 40.2103C226.564 40.4972 226.523 40.7486 226.523 40.9644V44.9063C226.523 45.084 226.607 45.2008 226.776 45.2567C226.946 45.3151 227.128 45.3595 227.324 45.39C227.523 45.423 227.703 45.4674 227.866 45.5233C228.03 45.5817 228.113 45.6934 228.113 45.8584C228.113 46.1377 227.921 46.2774 227.538 46.2774H224.493C224.357 46.2774 224.269 46.2329 224.229 46.1441C224.191 46.0552 224.171 45.9727 224.171 45.8965ZM230.985 45.4395C230.996 45.2744 231.002 45.0738 231.002 44.8377C231.002 44.6041 231.011 44.382 231.029 44.1712C231.045 43.963 231.084 43.7853 231.147 43.638C231.208 43.4933 231.306 43.4209 231.442 43.4209C231.509 43.4209 231.569 43.4679 231.621 43.5618C231.671 43.6583 231.718 43.7726 231.763 43.9046C231.808 44.0392 231.851 44.1699 231.892 44.2969C231.93 44.4238 231.966 44.5254 232 44.6016C232.124 44.8555 232.366 45.0929 232.727 45.3138C233.088 45.5372 233.5 45.6489 233.962 45.6489C234.255 45.6489 234.529 45.5474 234.784 45.3443C235.037 45.1411 235.163 44.8555 235.163 44.4873C235.163 44.1319 235.062 43.8399 234.859 43.6114C234.656 43.3828 234.405 43.1797 234.108 43.002C233.808 42.8243 233.483 42.6554 233.133 42.4954C232.784 42.338 232.46 42.1514 232.162 41.9356C231.862 41.7198 231.611 41.4557 231.408 41.1434C231.205 40.8336 231.103 40.4376 231.103 39.9551C231.103 39.5235 231.194 39.1363 231.374 38.7935C231.555 38.4507 231.789 38.1613 232.078 37.9252C232.364 37.6916 232.688 37.5113 233.049 37.3843C233.41 37.2574 233.765 37.1939 234.114 37.1939C234.791 37.1939 235.287 37.3171 235.603 37.5634C235.919 37.8122 236.077 38.0635 236.077 38.3174C236.077 38.4444 236.077 38.6056 236.077 38.8011C236.077 38.9992 236.065 39.1896 236.043 39.3724C236.02 39.5578 235.981 39.7139 235.924 39.8409C235.868 39.9678 235.783 40.0313 235.671 40.0313C235.603 40.0313 235.539 39.9805 235.478 39.879C235.415 39.7774 235.361 39.6695 235.315 39.5552C235.259 39.4156 235.208 39.2569 235.163 39.0792C235.062 38.7872 234.89 38.5739 234.649 38.4393C234.405 38.3073 233.968 38.2413 233.336 38.2413C233.088 38.2413 232.866 38.32 232.67 38.4774C232.471 38.6374 232.372 38.9141 232.372 39.3077C232.372 39.6378 232.474 39.9132 232.677 40.1341C232.88 40.3576 233.137 40.5582 233.448 40.7359C233.757 40.9136 234.092 41.0875 234.453 41.2577C234.814 41.4303 235.15 41.6334 235.461 41.867C235.77 42.1032 236.026 42.3825 236.229 42.7049C236.432 43.0299 236.533 43.44 236.533 43.9351C236.533 44.3667 236.441 44.7476 236.256 45.0777C236.069 45.4077 235.826 45.6832 235.529 45.9041C235.229 46.1275 234.89 46.2964 234.514 46.4107C234.135 46.5249 233.759 46.582 233.387 46.582C233.173 46.582 232.947 46.5541 232.71 46.4983C232.474 46.4399 232.242 46.3624 232.017 46.2659C231.791 46.172 231.588 46.0514 231.408 45.9041C231.227 45.7594 231.087 45.6045 230.985 45.4395Z" fill="white"/>
</g>
</g>
</g>
</g>
<g clip-path="url(#clip9_37_71)">
<g clip-path="url(#clip10_37_71)">
<path d="M86.8737 31.0565C86.8737 29.6844 87.1137 28.3257 87.5802 27.0581C88.0466 25.7905 88.7302 24.6386 89.5921 23.6684C90.4539 22.6982 91.4771 21.9286 92.6031 21.4035C93.7291 20.8785 94.936 20.6082 96.1549 20.6082C97.3737 20.6082 98.5806 20.8785 99.7066 21.4035C100.833 21.9286 101.856 22.6982 102.718 23.6684C103.579 24.6386 104.263 25.7905 104.73 27.0581C105.196 28.3257 105.436 29.6844 105.436 31.0565C105.436 33.8275 104.458 36.4851 102.718 38.4445C100.977 40.4039 98.6164 41.5047 96.1549 41.5047C93.6933 41.5047 91.3326 40.4039 89.5921 38.4445C87.8515 36.4851 86.8737 33.8275 86.8737 31.0565ZM90.2826 31.0565C90.2828 31.9246 90.4348 32.7842 90.7301 33.5861C91.0253 34.3881 91.458 35.1168 92.0034 35.7305C92.5488 36.3442 93.1963 36.831 93.9088 37.1631C94.6213 37.4951 95.3849 37.6659 96.1561 37.6657C96.9272 37.6656 97.6908 37.4944 98.4032 37.162C99.1156 36.8296 99.7628 36.3426 100.308 35.7286C100.853 35.1146 101.286 34.3858 101.581 33.5836C101.875 32.7815 102.027 31.9219 102.027 31.0538C102.027 29.3005 101.408 27.6192 100.306 26.3798C99.2048 25.1403 97.7111 24.4441 96.1537 24.4445C94.5962 24.4449 93.1028 25.1417 92.0017 26.3817C90.9007 27.6216 90.2823 29.3032 90.2826 31.0565ZM101.871 31.0565C101.876 32.6912 101.329 34.2669 100.339 35.4635C99.3497 36.6601 97.9929 37.388 96.5441 37.4993C95.0953 37.6106 93.6632 37.097 92.5385 36.0627C91.4139 35.0285 90.681 33.5513 90.4888 31.9309C90.9803 34.8644 93.3188 37.0828 96.1309 37.0828C99.2174 37.0828 101.733 34.4097 101.865 31.0565H101.871ZM100.855 28.5655C101.225 29.4528 101.392 30.4307 101.339 31.4093C101.286 32.3879 101.015 33.3358 100.552 34.1659C100.088 34.9959 99.4468 35.6815 98.6864 36.1595C97.926 36.6376 97.0711 36.8928 96.2002 36.9016C95.3294 36.9104 94.4705 36.6727 93.7026 36.2101C92.9347 35.7476 92.2824 35.0751 91.8057 34.2546C91.329 33.4341 91.0432 32.4918 90.9746 31.5144C90.906 30.5371 91.0567 29.556 91.413 28.6613C91.7762 27.5889 92.4183 26.6646 93.2553 26.0092C94.0923 25.3538 95.0853 24.9977 96.1048 24.9873C97.1244 24.977 98.123 25.3129 98.9703 25.9512C99.8177 26.5895 100.474 27.5006 100.855 28.5655ZM96.1549 25.354C95.4898 25.3542 94.8313 25.5018 94.2169 25.7885C93.6025 26.0751 93.0443 26.4952 92.5742 27.0248C92.104 27.5543 91.7311 28.1829 91.4768 28.8746C91.2224 29.5664 91.0916 30.3078 91.0917 31.0565C91.0919 31.8052 91.223 32.5465 91.4777 33.2381C91.7323 33.9297 92.1055 34.5581 92.5759 35.0874C93.0463 35.6167 93.6046 36.0365 94.2191 36.3228C94.8336 36.6091 95.4922 36.7564 96.1572 36.7563C97.5004 36.7559 98.7884 36.1549 99.7379 35.0855C100.687 34.0161 101.221 32.5658 101.22 31.0538C101.22 29.5417 100.686 28.0918 99.7362 27.0229C98.7863 25.9539 97.498 25.3536 96.1549 25.354ZM93.4387 31.4586L94.5774 31.6637C94.6987 32.0832 94.9511 32.4388 95.2877 32.6647C95.6244 32.8905 96.0223 32.9711 96.4078 32.8916L97.0982 33.9212C97.1509 34.0224 97.2456 34.0683 97.3152 34.0238L97.7011 33.7809C97.773 33.7363 97.7874 33.623 97.7407 33.5218L97.3283 32.3127C97.59 31.9837 97.737 31.5592 97.742 31.1176C97.7471 30.676 97.6099 30.2473 97.3559 29.9108L97.803 28.722C97.8569 28.6235 97.8414 28.5075 97.7742 28.4603L97.3967 28.2066C97.3271 28.1607 97.2265 28.2012 97.1761 28.2983L96.4509 29.3023C96.067 29.2135 95.6674 29.2835 95.3256 29.4993C94.9837 29.7152 94.7223 30.0625 94.5894 30.4776L93.4507 30.6355C93.3488 30.6341 93.2661 30.7043 93.2661 30.7933L93.2577 31.2926C93.2577 31.383 93.3368 31.4572 93.4387 31.4586ZM99.1047 31.1766C99.0838 31.8003 98.9095 32.4052 98.6013 32.924L99.5854 33.6756C100.017 32.9577 100.267 32.1117 100.296 31.2265L99.1047 31.1766ZM95.4297 27.0043L95.8288 27.9623C95.8828 28.1081 95.9127 28.1728 96.0134 28.1728H96.2927C96.3946 28.1728 96.4234 28.1081 96.4773 27.9623L96.874 27.0043C96.8745 26.9768 96.8701 26.9495 96.8609 26.924C96.8517 26.8985 96.838 26.8754 96.8206 26.8561C96.8032 26.8367 96.7825 26.8216 96.7598 26.8116C96.737 26.8016 96.7127 26.7969 96.6883 26.7978H95.6155C95.5912 26.7975 95.5671 26.8025 95.5445 26.8128C95.522 26.823 95.5015 26.8381 95.4842 26.8573C95.4669 26.8765 95.4532 26.8994 95.4439 26.9246C95.4345 26.9499 95.4297 26.9769 95.4297 27.0043ZM92.5097 30.5761L93.2553 30.4749C93.3129 30.4447 93.3752 30.4278 93.4387 30.425L93.6245 30.3993C93.6497 30.3804 93.6628 30.3534 93.6748 30.313L93.7611 30.0147C93.7935 29.9054 93.7467 29.8542 93.6425 29.7516L92.9544 29.0297C92.9074 29.0127 92.8563 29.0173 92.8122 29.0426C92.7682 29.0679 92.7349 29.1118 92.7195 29.1646L92.3899 30.3143C92.3817 30.3403 92.3784 30.3679 92.3801 30.3954C92.3818 30.423 92.3884 30.4498 92.3996 30.4743C92.4109 30.4988 92.4264 30.5205 92.4454 30.538C92.4643 30.5555 92.4862 30.5685 92.5097 30.5761ZM94.6242 34.8104L94.8016 33.7728C94.8339 33.6189 94.8447 33.5474 94.7608 33.4786L94.5355 33.2937C94.454 33.2249 94.3976 33.26 94.2754 33.341L93.4531 33.8537C93.4245 33.8989 93.4128 33.9548 93.4204 34.0095C93.428 34.0642 93.4544 34.1134 93.4938 34.1466L94.3629 34.8563C94.3826 34.873 94.4051 34.885 94.429 34.8917C94.4529 34.8985 94.4778 34.8997 94.5021 34.8954C94.5265 34.8912 94.5498 34.8814 94.5708 34.8668C94.5917 34.8523 94.6099 34.8331 94.6242 34.8104ZM98.8554 33.8551L98.0319 33.3423C97.9528 33.2897 97.9025 33.2573 97.851 33.2587L97.9121 33.4368C98.0367 33.7175 97.8294 34.0116 97.5705 34.1506L97.6867 34.8091C97.7009 34.8316 97.7189 34.8508 97.7398 34.8654C97.7606 34.88 97.7838 34.8898 97.808 34.8942C97.8322 34.8986 97.857 34.8975 97.8808 34.891C97.9046 34.8845 97.9271 34.8727 97.9468 34.8563L98.8147 34.1466C98.8538 34.1135 98.8799 34.0645 98.8875 34.0101C98.8951 33.9557 98.8836 33.9001 98.8554 33.8551ZM99.3541 29.0297L98.666 29.7516C98.5594 29.8542 98.515 29.9054 98.5462 30.0147L98.6337 30.313C98.6624 30.4236 98.7296 30.4358 98.8674 30.4492L99.8 30.5774C99.8233 30.5692 99.8449 30.5558 99.8636 30.538C99.8822 30.5203 99.8976 30.4985 99.9087 30.4741C99.9199 30.4496 99.9266 30.4229 99.9285 30.3954C99.9304 30.368 99.9275 30.3404 99.9198 30.3143L99.5878 29.166C99.5807 29.1395 99.569 29.1149 99.5533 29.0937C99.5376 29.0724 99.5183 29.0549 99.4965 29.0422C99.4747 29.0295 99.4509 29.0218 99.4264 29.0197C99.402 29.0175 99.3773 29.0209 99.3541 29.0297ZM97.1641 27.9367L97.2456 27.9731C97.3451 27.9448 97.4758 27.9812 97.664 28.0919C97.9313 28.2363 98.0379 28.3685 98.0475 28.5129C98.2094 28.664 98.3544 28.8327 98.4826 29.0176L99.4212 28.1944C98.9429 27.5032 98.3009 26.9779 97.5693 26.6791L97.1641 27.9367ZM93.8247 29.0162C94.1684 28.5253 94.6266 28.1516 95.148 27.9367L94.7428 26.6764C94.0116 26.977 93.3692 27.5008 92.8873 28.189L93.8247 29.0162ZM93.706 32.9213C93.4708 32.5254 93.3127 32.078 93.2421 31.6084C93.1901 31.5786 93.1466 31.5329 93.1165 31.4766C93.0864 31.4203 93.0709 31.3556 93.0719 31.2899L93.0707 31.1793L92.0111 31.2211C92.0387 32.0847 92.2784 32.9375 92.7183 33.6716L93.706 32.9213ZM96.9675 34.2586C96.4352 34.4306 95.8705 34.4297 95.3386 34.2559L95.0077 35.5445C95.7554 35.7879 96.549 35.7889 97.2972 35.5472L96.9675 34.2586ZM91.7498 31.0565C91.7498 30.5734 91.8121 30.1079 91.9248 29.6653L92.1717 29.7138C92.3012 29.7422 92.3623 29.753 92.3719 29.7192L92.3983 29.6261C92.4079 29.5924 92.3539 29.5627 92.2329 29.4979L92.0075 29.3751C92.3081 28.4402 92.851 27.6283 93.5661 27.0446C94.2812 26.461 95.1354 26.1325 96.0182 26.1015L96.0566 26.3768C96.0721 26.5266 96.0817 26.5927 96.1141 26.5927H96.2004C96.2316 26.5927 96.2388 26.5266 96.2579 26.3768L96.2939 26.1015C97.177 26.1332 98.0311 26.4631 98.7455 27.0483C99.4599 27.6336 100.001 28.4471 100.3 29.3832L100.076 29.5047C99.9522 29.5695 99.9007 29.6005 99.909 29.6356L99.9366 29.7287C99.9462 29.7638 100.007 29.753 100.137 29.7233L100.38 29.6761C100.627 30.6307 100.613 31.647 100.339 32.5923C100.065 33.5376 99.5441 34.3679 98.8446 34.9751L98.672 34.7767C98.5809 34.6661 98.539 34.6202 98.5114 34.6391L98.4419 34.6971C98.4155 34.7187 98.4431 34.7794 98.5078 34.9117L98.6241 35.1586C97.8945 35.7158 97.0329 36.0134 96.1513 36.0128C95.2666 36.0147 94.4021 35.7156 93.6712 35.1545L93.7887 34.9063C93.8534 34.7727 93.8798 34.7119 93.8534 34.6931L93.7839 34.635C93.7587 34.6121 93.7144 34.6607 93.6221 34.7713L93.4495 34.9683C92.9201 34.5052 92.4918 33.912 92.1972 33.234C91.9026 32.556 91.7496 31.8112 91.7498 31.0565ZM95.6934 30.1011C95.8066 30.0334 95.9305 29.9915 96.058 29.9777C96.1856 29.9639 96.3143 29.9786 96.4369 30.0208C96.5594 30.063 96.6734 30.132 96.7723 30.2238C96.8711 30.3156 96.953 30.4284 97.0131 30.5558C97.0732 30.6833 97.1105 30.8228 97.1227 30.9664C97.135 31.11 97.122 31.2549 97.0844 31.3929C97.0469 31.5308 96.9857 31.6591 96.9041 31.7704C96.8225 31.8817 96.7223 31.9738 96.6091 32.0415C96.3806 32.1782 96.1131 32.2071 95.8656 32.1218C95.6181 32.0366 95.4109 31.8441 95.2894 31.5868C95.168 31.3295 95.1423 31.0284 95.2181 30.7498C95.2938 30.4711 95.4648 30.2378 95.6934 30.1011ZM16.0967 31.0565C16.0769 29.6704 16.3023 28.2938 16.7598 27.0068C17.2172 25.7198 17.8976 24.5482 18.7613 23.5601C19.625 22.5721 20.6547 21.7874 21.7905 21.2518C22.9262 20.7161 24.1453 20.4403 25.3766 20.4403C26.608 20.4403 27.8271 20.7161 28.9628 21.2518C30.0986 21.7874 31.1283 22.5721 31.992 23.5601C32.8557 24.5482 33.5361 25.7198 33.9935 27.0068C34.451 28.2938 34.6764 29.6704 34.6566 31.0565C34.6175 33.7981 33.6226 36.4125 31.8865 38.3357C30.1504 40.2589 27.8123 41.3368 25.3766 41.3368C22.941 41.3368 20.6029 40.2589 18.8668 38.3357C17.1307 36.4125 16.1358 33.7981 16.0967 31.0565ZM19.6375 31.0565C19.6373 31.9244 19.7891 32.7839 20.0841 33.5857C20.3791 34.3876 20.8116 35.1162 21.3568 35.7299C21.902 36.3435 22.5493 36.8302 23.2617 37.1621C23.974 37.4941 24.7375 37.6647 25.5085 37.6644C26.6697 37.6644 27.8049 37.2767 28.7704 36.5504C29.7359 35.8241 30.4884 34.7918 30.9327 33.5841C31.3771 32.3763 31.4932 31.0473 31.2666 29.7652C31.04 28.4831 30.4807 27.3055 29.6595 26.3812C28.8383 25.4569 27.7921 24.8275 26.6531 24.5727C25.5142 24.3178 24.3337 24.4489 23.2609 24.9493C22.1882 25.4498 21.2713 26.2971 20.6264 27.3842C19.9814 28.4713 19.6373 29.7492 19.6375 31.0565ZM31.2261 31.0565C31.2289 32.6895 30.68 34.2626 29.6909 35.457C28.7017 36.6514 27.3461 37.3778 25.8989 37.489C24.4517 37.6002 23.0211 37.0878 21.8969 36.0558C20.7728 35.0237 20.0392 33.5491 19.8449 31.9309C20.3363 34.8644 22.6761 37.0828 25.4881 37.0828C28.5735 37.0828 31.0894 34.4097 31.2201 31.0565H31.2261ZM20.769 28.66C21.1327 27.5884 21.7748 26.665 22.6115 26.0103C23.4482 25.3555 24.4407 24.9998 25.4597 24.9894C26.4787 24.9791 27.4768 25.3146 28.3238 25.9523C29.1709 26.5899 29.8276 27.5001 30.2084 28.5642C30.5795 29.4514 30.7464 30.4295 30.6938 31.4084C30.6412 32.3873 30.3707 33.3356 29.9073 34.1661C29.4439 34.9965 28.8024 35.6824 28.0419 36.1607C27.2814 36.639 26.4262 36.8943 25.5551 36.9032C24.684 36.912 23.8249 36.6741 23.0568 36.2113C22.2888 35.7486 21.6364 35.0758 21.1598 34.2549C20.6832 33.434 20.3976 32.4913 20.3293 31.5136C20.261 30.536 20.4122 29.5546 20.769 28.66ZM25.5085 25.354C24.1654 25.354 22.8772 25.9546 21.9275 27.0238C20.9777 28.093 20.4442 29.5431 20.4442 31.0551C20.4442 32.5672 20.9777 34.0173 21.9275 35.0864C22.8772 36.1556 24.1654 36.7563 25.5085 36.7563C28.305 36.7563 30.5704 34.2046 30.5704 31.0565C30.5704 27.9084 28.3062 25.354 25.5085 25.354ZM21.1058 31.0565C21.1058 30.5734 21.167 30.1079 21.2808 29.6653L21.5266 29.7138C21.6584 29.7422 21.7184 29.753 21.7279 29.7192L21.7543 29.6261C21.7639 29.5924 21.7112 29.5627 21.5901 29.4979L21.3671 29.3751C21.667 28.4397 22.2098 27.6273 22.925 27.0435C23.6402 26.4597 24.4948 26.1315 25.3778 26.1015L25.4138 26.3768C25.4306 26.5266 25.4402 26.5927 25.4701 26.5927H25.5588C25.59 26.5927 25.5984 26.5266 25.6164 26.3768L25.6523 26.1015C26.5354 26.1326 27.3897 26.4622 28.104 27.0476C28.8183 27.6329 29.3595 28.4468 29.657 29.3832L29.4329 29.5047C29.3118 29.5695 29.2579 29.6005 29.2687 29.6356L29.2951 29.7287C29.3046 29.7638 29.3646 29.753 29.4952 29.7233L29.7422 29.6761C29.9881 30.6309 29.9731 31.647 29.699 32.5921C29.4249 33.5372 28.9045 34.3675 28.2055 34.9751L28.0329 34.7767C27.9418 34.6661 27.8998 34.6202 27.8734 34.6391L27.8027 34.6971C27.7764 34.7187 27.8039 34.7794 27.8687 34.9117L27.9849 35.1586C27.255 35.7161 26.393 36.0137 25.5109 36.0128C24.6267 36.0144 23.7626 35.7153 23.0321 35.1545L23.1483 34.9063C23.2119 34.7727 23.2394 34.7119 23.2131 34.6931L23.1436 34.635C23.116 34.6121 23.074 34.6607 22.9829 34.7713L22.8115 34.9683C22.2797 34.5073 21.8492 33.9146 21.5535 33.2363C21.2577 32.558 21.1045 31.8121 21.1058 31.0565ZM26.3236 34.2586C25.7904 34.4304 25.225 34.4294 24.6922 34.2559L24.3626 35.5445C25.1034 35.7847 25.8969 35.7915 26.6532 35.5472L26.3236 34.2586ZM23.062 32.9213C22.751 32.4041 22.5764 31.7982 22.5586 31.1739L21.3695 31.2211C21.3954 32.096 21.6392 32.9452 22.0732 33.6716L23.062 32.9213ZM23.1819 29.0162C23.3042 28.8408 23.4396 28.6816 23.5859 28.5385C23.6038 28.3955 23.7021 28.2605 23.9191 28.1297C24.1396 27.9866 24.2823 27.9434 24.3938 27.9839L24.504 27.9367L24.0989 26.6764C23.3673 26.9768 22.7244 27.5006 22.2422 28.189L23.1819 29.0162ZM26.5202 27.9367C27.0452 28.154 27.5019 28.5318 27.8387 29.0189L28.7784 28.1958C28.3038 27.513 27.6637 26.9813 26.9265 26.6804L26.5202 27.9367ZM28.7089 29.0297L28.0221 29.7516C27.9154 29.8542 27.8711 29.9054 27.901 30.0147L27.9885 30.313C27.9981 30.3507 28.0125 30.3764 28.0317 30.3953L28.1935 30.4182C28.2502 30.4203 28.3056 30.4374 28.3553 30.4681L29.1548 30.5774C29.2017 30.5604 29.2408 30.5232 29.2634 30.4739C29.2861 30.4246 29.2906 30.3673 29.2759 30.3143L28.9438 29.166C28.9365 29.1396 28.9246 29.1151 28.9087 29.0939C28.8929 29.0727 28.8735 29.0553 28.8517 29.0426C28.8298 29.0299 28.8059 29.0223 28.7814 29.0201C28.7569 29.0178 28.7323 29.0211 28.7089 29.0297ZM28.2091 33.8551L27.3868 33.3423C27.2657 33.26 27.2106 33.2263 27.1267 33.2951L26.9013 33.48C26.8174 33.5488 26.827 33.6216 26.8594 33.7741L27.038 34.8118C27.0522 34.8343 27.0702 34.8535 27.091 34.8681C27.1118 34.8827 27.135 34.8925 27.1592 34.8969C27.1835 34.9013 27.2082 34.9002 27.232 34.8937C27.2559 34.8872 27.2783 34.8754 27.2981 34.859L28.1671 34.1493C28.187 34.1331 28.2039 34.1126 28.2168 34.089C28.2297 34.0655 28.2384 34.0393 28.2423 34.012C28.2462 33.9846 28.2452 33.9567 28.2395 33.9298C28.2339 33.9029 28.2235 33.8775 28.2091 33.8551ZM23.979 34.8104L24.0965 34.1371C23.852 33.9981 23.5679 33.82 23.7333 33.4489L23.7968 33.2587C23.7367 33.2704 23.6801 33.2992 23.6326 33.3423L22.8115 33.8551C22.797 33.8772 22.7865 33.9024 22.7807 33.9291C22.7748 33.9558 22.7737 33.9835 22.7773 34.0107C22.781 34.0379 22.7894 34.0641 22.8021 34.0876C22.8147 34.1111 22.8314 34.1316 22.8511 34.1479L23.7201 34.8577C23.7398 34.874 23.7621 34.8858 23.7859 34.8923C23.8096 34.8987 23.8343 34.8998 23.8584 34.8954C23.8825 34.891 23.9056 34.8812 23.9263 34.8666C23.947 34.852 23.965 34.8329 23.979 34.8104ZM21.8634 30.5761L22.7959 30.4479C22.9362 30.4344 22.9997 30.4223 23.0321 30.3116L23.1172 30.0134C23.1483 29.9041 23.1016 29.8528 22.9973 29.7503L22.3093 29.0283C22.2622 29.0117 22.2113 29.0165 22.1673 29.0417C22.1234 29.067 22.09 29.1106 22.0744 29.1633L21.7435 30.313C21.7357 30.3391 21.7326 30.3667 21.7345 30.3942C21.7363 30.4217 21.743 30.4485 21.7542 30.473C21.7653 30.4975 21.7808 30.5193 21.7995 30.537C21.8183 30.5547 21.84 30.568 21.8634 30.5761ZM24.7857 27.0043L25.1849 27.9623C25.24 28.1081 25.2664 28.1728 25.3707 28.1728H25.6487C25.7494 28.1728 25.7794 28.1081 25.8333 27.9623L26.2313 27.0043C26.2313 26.9769 26.2265 26.9499 26.2171 26.9246C26.2077 26.8994 26.194 26.8765 26.1767 26.8573C26.1594 26.8381 26.1389 26.823 26.1164 26.8128C26.0939 26.8025 26.0698 26.7975 26.0455 26.7978H24.9727C24.9484 26.7975 24.9242 26.8025 24.9016 26.8127C24.879 26.8229 24.8584 26.8381 24.841 26.8572C24.8237 26.8764 24.8098 26.8993 24.8003 26.9245C24.7908 26.9498 24.7859 26.9769 24.7857 27.0043ZM28.4308 31.5544C28.3641 32.0451 28.2021 32.5133 27.9562 32.9254L28.9426 33.677C29.3787 32.9518 29.6242 32.103 29.6511 31.2278L28.5843 31.1847C28.5682 31.3228 28.5146 31.4519 28.4308 31.5544ZM24.5424 33.9347L25.2376 32.8984C25.608 32.9712 26.0012 32.8984 26.3488 32.6636C26.7012 32.4261 26.9445 32.0631 27.0584 31.6542L28.1935 31.4505C28.2942 31.4505 28.3745 31.3736 28.3733 31.2832L28.3661 30.7852C28.3637 30.6975 28.2798 30.6247 28.1803 30.6274L27.0368 30.4681C26.9017 30.054 26.6381 29.7089 26.2946 29.4963C25.9512 29.2838 25.5511 29.2182 25.1681 29.3117L24.4441 28.3105C24.3914 28.212 24.2943 28.1701 24.2259 28.2174L23.8472 28.4738C23.7764 28.521 23.7645 28.6357 23.816 28.7342L24.2643 29.9297C24.0131 30.2678 23.8792 30.6969 23.8876 31.1376C23.896 31.5783 24.046 32.0006 24.3098 32.3262L23.8999 33.5353C23.8508 33.6351 23.8675 33.7498 23.9383 33.7957L24.3266 34.0373C24.3973 34.0818 24.492 34.0346 24.5424 33.9347ZM24.534 31.0565C24.5337 30.7655 24.636 30.4863 24.8186 30.2803C25.0011 30.0744 25.2488 29.9584 25.5073 29.9581C25.7658 29.9577 26.0138 30.073 26.1967 30.2784C26.3797 30.4839 26.4827 30.7628 26.483 31.0538C26.4832 31.1978 26.4581 31.3405 26.4093 31.4737C26.3605 31.6069 26.2888 31.7279 26.1984 31.8299C26.108 31.9319 26.0007 32.0128 25.8825 32.0681C25.7644 32.1234 25.6377 32.152 25.5097 32.1522C25.3817 32.1523 25.255 32.1241 25.1367 32.0692C25.0184 32.0142 24.9109 31.9336 24.8203 31.8318C24.7297 31.7301 24.6578 31.6092 24.6086 31.4762C24.5595 31.3432 24.5342 31.2005 24.534 31.0565ZM3.15358 30.2765C2.45716 29.4669 1.96571 28.6438 1.73078 27.8692L1.83266 27.8827C2.28575 27.934 2.72806 27.9623 3.12841 28.0366C3.26081 28.7523 3.50951 29.4344 3.86199 30.0485C4.2036 30.0795 4.63752 30.1011 5.19369 30.1065C5.20816 30.1507 5.22057 30.1958 5.23085 30.2414C5.23085 30.2414 5.2788 30.3899 5.14934 30.3899C4.19042 30.3858 3.57431 30.3399 3.15358 30.2765ZM115.492 18.3305C116.13 18.2981 116.754 18.2846 117.139 18.3183C118.28 18.4155 118.962 18.4182 119.245 18.8122C119.153 18.7931 119.06 18.794 118.969 18.8149C118.507 18.8972 118.149 19.0308 117.664 18.9012L115.492 18.3305ZM67.1798 35.9439C67.7899 35.9318 71.4122 36.0694 73.0424 36.1963C73.6837 36.2475 74.4472 36.5498 74.4472 36.5498C74.4472 36.5498 74.8667 36.7387 75.2755 36.1086C76.2104 34.6593 76.4945 34.1358 76.9848 32.9604C77.3503 32.0874 77.4534 31.7662 77.0075 31.6947C76.5628 31.6259 76.6551 31.6623 76.6551 31.6623L74.138 35.5364L67.1798 35.9439ZM85.4844 31.1671L85.3274 36.9897H74.7433L73.8239 36.6564H70.5696C70.5696 36.6564 37.4315 36.9897 37.0384 36.9897C36.644 36.9897 36.5086 36.7671 36.5086 36.7671V31.8229C42.3616 31.7474 80.5987 31.2332 85.4844 31.1671ZM77.0447 19.0902C76.9596 19.3492 76.8457 19.669 76.6971 20.0604C76.0654 21.743 74.5467 25.7372 71.5309 31.1442L44.711 31.5072C44.6906 30.398 44.5539 21.4934 45.3127 19.2426L45.3235 19.2143C55.5444 19.8404 76.7318 19.0996 76.7318 19.0996L77.0447 19.0902ZM83.7224 30.9809L71.7538 31.1415C74.7337 25.7804 76.2392 21.8173 76.8721 20.144C77.0339 19.7149 77.1562 19.3641 77.2497 19.0753C77.4043 19.0429 78.0012 18.9215 80.3134 18.5234C80.8892 18.4233 81.4658 18.3293 82.0431 18.2414C82.0982 21.8739 82.8222 26.563 83.7224 30.9809ZM82.0575 16.7598L82.0503 17.0566C81.5313 17.1686 81.0458 17.2779 80.5915 17.3818C79.5804 17.6173 78.5595 17.7961 77.5325 17.9175L77.5361 17.8919C77.5433 17.873 77.6045 17.7543 77.692 17.5694C79.1529 17.3404 80.6085 17.0705 82.0575 16.7598ZM47.2006 17.6274C46.7721 17.6388 46.3536 17.7755 45.9863 18.0241C39.9655 17.622 32.6225 17.1052 28.2007 17.1727C21.6285 17.2698 16.2441 19.5247 13.0509 21.0994C9.85406 22.6728 8.74051 23.5148 9.87204 23.172C10.9983 22.8378 12.0987 22.4014 13.1624 21.8672C14.5576 21.1695 16.841 19.8984 20.8649 19.1482C30.586 17.3387 34.538 18.3912 44.2759 19.1401C44.5503 19.163 44.8332 19.1819 45.1269 19.2008C44.7194 20.4557 44.5719 23.5512 44.5228 26.3174C44.4796 28.7652 44.5144 30.9836 44.524 31.5072L36.5074 31.6124C35.7702 25.4161 31.6648 20.3343 25.4342 20.2965C18.6822 20.2574 15.2768 24.7144 15.2648 30.649C15.1965 32.6393 15.0598 34.16 14.5768 35.473C14.4377 35.8427 14.2735 35.7793 14.2735 35.7793C10.2664 35.4285 6.41632 33.4462 4.0262 31.1887C4.37141 31.217 4.75259 31.2319 5.15414 31.2278C6.77232 31.2143 5.78103 29.2915 4.99232 28.2012C4.20121 27.1095 2.81916 27.1635 1.99808 27.0326C1.84705 27.0056 1.7056 26.9854 1.57495 26.9597V26.8909C1.57495 26.2068 3.78887 24.265 9.18521 22.1222C9.02939 22.2086 8.89035 22.2963 8.77767 22.3799C7.96498 22.9926 7.79358 23.2597 7.79358 23.2597C7.79358 23.2597 5.86014 24.2529 5.06304 24.6901C4.26473 25.13 3.7565 25.8398 3.79007 25.972C3.82363 26.1069 3.77209 26.1636 4.90961 25.4363C5.76305 24.8925 9.86245 22.3853 12.8016 20.5934C16.8099 18.2522 21.9197 16.6505 30.7274 16.5601C38.4444 16.4831 42.2753 16.9959 42.2753 16.9959C42.2753 16.9959 42.7536 17.3427 44.0385 17.4574C44.9831 17.5424 46.0918 17.5937 47.2006 17.6274ZM25.3479 19.8148C31.2477 19.8485 35.2392 24.4054 36.2748 30.1497C35.2392 24.3986 31.31 19.1792 25.4126 19.1441C18.9578 19.1063 15.4949 23.8076 15.2013 29.3832C15.4925 23.8467 18.8955 19.7743 25.3479 19.8148ZM75.2971 15.5386L77.2245 15.5723L76.1061 14.6116C75.8808 14.8922 75.6411 15.1702 75.387 15.4441L75.2971 15.5386ZM95.8816 19.6326C102.993 19.6326 106.3 23.1518 106.779 27.5062C106.301 23.1518 103.069 19.1455 95.9583 19.1455C89.5155 19.1455 85.9591 23.3596 85.5947 27.123C85.9567 23.3906 89.4412 19.6326 95.8816 19.6326ZM80.16 9.47581L80.3446 8.76063C80.3446 8.76063 72.9908 8.0873 69.5363 8.13452L70.0026 8.15746C74.2398 8.39495 79.0081 9.12631 79.0081 9.12631L80.0449 9.27745L80.003 9.43937C79.7632 9.40699 79.2119 9.33547 78.0108 9.19109C76.5424 8.98463 73.1838 8.54608 69.9942 8.36932C66.4534 8.16961 64.3857 8.36932 64.3857 8.36932C64.3857 8.36932 61.7774 10.3947 59.4928 12.466C57.473 14.2985 53.8651 17.7705 53.8651 17.7705C53.8651 17.7705 67.1234 17.6585 68.1998 17.6585C72.4754 17.6585 73.553 17.1174 75.2611 15.2916C77.3767 13.0274 78.4124 10.3259 78.6845 9.53248L78.8666 9.55947C79.0069 9.57836 79.1615 9.5986 79.3293 9.61749L79.2262 9.99397L78.8343 9.65528C78.7492 9.89681 78.6329 10.2058 78.4915 10.5499L79.0668 10.5607L78.9158 11.0924L78.4351 10.6795C78.3347 10.92 78.228 11.1571 78.1151 11.3906L78.0731 11.4769L78.7983 11.4904L78.6089 12.1219L78.0072 11.6065C77.8718 11.8804 77.7171 12.1705 77.5457 12.4701L78.4939 12.4876C78.4112 12.7508 78.326 13.0098 78.2421 13.2622L77.4726 12.5996C77.3024 12.8911 77.119 13.1907 76.9188 13.4916L78.1558 13.5145C78.0384 13.8492 77.9257 14.1703 77.8118 14.4672L76.8325 13.6238C76.6383 13.9085 76.431 14.1973 76.208 14.482L77.7926 14.5104C77.6669 14.8373 77.5269 15.157 77.3731 15.4684C77.0914 16.0311 76.8217 16.4737 76.5113 16.8191L76.2847 16.6248C76.2847 16.3995 76.1385 16.2322 75.9527 16.2322C75.9174 16.2322 75.8822 16.2381 75.8484 16.2497L75.1712 15.6681C74.0972 16.7773 73.2126 17.3778 71.5716 17.6612L71.634 17.6598C73.7064 17.6342 75.0333 17.5802 75.9299 17.4439C76.0666 17.3562 76.2032 17.2577 76.3375 17.147C76.8038 16.7625 77.1586 16.2268 77.5373 15.4684C78.1954 14.1582 78.9757 11.5093 79.4852 9.63773L79.9346 9.68901C79.5175 11.2448 78.6844 14.3336 78.2889 15.6087L77.68 15.6128C77.3726 16.2222 76.9827 16.774 76.5245 17.2482C76.1361 17.6544 75.7022 17.7165 75.3174 17.873C75.7438 17.848 76.1689 17.8016 76.5916 17.734C76.8613 17.6962 77.155 17.6517 77.4666 17.6058C77.3863 17.7759 77.3252 17.8987 77.3024 17.9459C75.2971 18.1685 74.0361 18.0889 74.0361 18.0889C74.0361 18.0889 56.0371 18.653 49.6494 18.2616C48.5033 18.1907 47.3574 18.1164 46.2117 18.039C46.6497 17.7673 47.1441 17.6317 47.6441 17.6463L47.5314 17.6328C50.2224 17.703 52.7911 17.6558 52.7911 17.6558C52.7911 17.6558 55.3898 15.2093 58.1611 12.8209C60.9324 10.4325 63.3525 8.54473 63.3525 8.54473C63.3525 8.54473 63.5958 8.34368 63.5538 8.23033C63.5227 8.13857 63.0036 7.8444 61.5988 7.71756C63.0204 7.30465 66.2017 6.76085 72.3412 7.3087C76.015 7.63795 78.5107 7.93076 80.184 8.16151C80.359 8.31534 80.5196 8.48401 80.6407 8.67158L80.6922 8.76738L80.8552 8.79842C80.7749 8.60275 80.5807 8.38146 80.377 8.18984C82.6904 8.51504 83.3208 8.71611 83.3208 8.71611L83.4755 8.89152C84.3457 8.9482 86.1605 9.07774 86.8497 9.19649C87.075 9.23427 87.4946 9.35301 88.0256 10.1141C88.8562 10.1856 89.7576 10.2746 90.1927 10.3489C90.4049 10.3866 90.7885 10.4932 91.2739 11.1382C92.1453 11.2138 93.1235 11.3083 93.5813 11.3865C93.7887 11.4216 94.1591 11.5255 94.6314 12.1327C95.474 12.2056 96.4006 12.296 96.8381 12.3716C97.055 12.4094 97.4446 12.516 97.9397 13.1853L97.972 13.1947C98.7679 13.2662 99.6094 13.3485 100.023 13.4201C100.229 13.4551 100.596 13.5577 101.062 14.1528C101.916 14.2256 102.861 14.3174 103.31 14.3943C103.531 14.4334 103.939 14.5468 104.459 15.2741C109.694 16.9325 113.042 17.7961 117.637 19.0051C118.512 19.2359 119.216 18.653 119.346 19.0429C119.398 19.1873 119.352 20.1629 119.107 21.5514C119.307 21.5582 119.441 21.7444 119.411 21.9711L119.118 24.1045C119.099 24.2192 119.046 24.3234 118.967 24.3997C118.889 24.476 118.79 24.5199 118.686 24.5241H118.385C117.943 25.9477 117.315 27.4752 116.446 28.8786C115.69 30.0859 114.752 31.1353 113.676 31.9794H116.999C117.204 31.9794 117.308 32.1684 117.226 32.3978L116.952 33.1912C116.908 33.308 116.836 33.4088 116.744 33.4827C116.653 33.5565 116.545 33.6004 116.433 33.6095H110.787C109.919 33.9374 108.996 34.1493 108.025 34.2275C107.075 34.3044 107.247 34.0359 107.247 34.0359L106.774 28.0393C106.297 23.6848 102.988 20.1629 95.8768 20.1629C89.217 20.1629 85.7182 24.1827 85.5623 28.0379L85.4856 30.962L83.9118 30.9836C83.0032 26.5495 82.2768 21.8429 82.2277 18.2185C82.9972 18.1065 82.7803 18.1685 83.2345 18.0511C83.8998 17.8771 89.4712 17.3522 95.7437 17.1781C102.015 17.0054 112.401 18.9417 114.033 19.0281C115.664 19.1144 113.896 18.3979 110.352 17.3872C106.811 16.3765 104.655 16.0851 97.405 15.6614C91.564 15.32 86.0778 16.2079 82.2373 17.0229L82.2433 16.7233C83.4459 16.4623 84.6429 16.1694 85.8332 15.8449C87.6947 15.3335 83.8602 15.5021 82.5309 15.5467L82.2756 15.5534C82.3715 12.4741 82.5333 9.09258 82.5333 9.09258L82.3308 9.0656C82.3308 9.0656 82.1809 12.4687 82.0886 15.5588C81.1824 15.5804 79.6961 15.5966 78.4855 15.6101C78.9122 14.2027 79.7764 10.9277 80.16 9.47581ZM75.7513 16.6059C75.751 16.5756 75.7561 16.5455 75.7662 16.5173C75.7763 16.4892 75.7912 16.4636 75.8102 16.442C75.8291 16.4204 75.8517 16.4033 75.8766 16.3916C75.9015 16.3799 75.9282 16.3738 75.9551 16.3738C75.9822 16.3737 76.009 16.3796 76.034 16.3912C76.059 16.4028 76.0818 16.4199 76.1008 16.4415C76.1199 16.4631 76.135 16.4888 76.1452 16.517C76.1553 16.5452 76.1604 16.5755 76.1601 16.6059C76.1601 16.7328 76.0714 16.8353 75.9551 16.8353C75.9011 16.8353 75.8492 16.8112 75.811 16.7681C75.7728 16.7251 75.7513 16.6668 75.7513 16.6059ZM74.1559 16.7679H75.6543C75.7034 16.8799 75.7981 16.9595 75.9132 16.9757H74.1559C74.0313 16.9757 74.0313 16.7679 74.1559 16.7679ZM75.1053 14.7559L74.9506 14.9246C73.3576 16.6289 72.4095 17.1551 68.1998 17.1551C67.3248 17.1551 58.4044 17.228 55.0901 17.2563C55.4126 16.9473 55.7985 16.579 56.2205 16.1809C57.841 15.9974 60.9995 15.7073 66.0806 15.5993C71.9228 15.4752 74.253 15.011 75.1053 14.7559ZM69.9726 8.87263C73.2881 9.05615 76.793 9.52438 78.1343 9.71734C77.6096 11.0828 76.9242 12.3627 76.0966 13.5226C74.9722 13.4443 71.0238 13.188 66.7602 13.0544C62.2749 12.9127 59.6174 13.7102 58.269 14.2486C58.8095 13.7426 59.3298 13.2608 59.7733 12.8574C61.7834 11.0357 64.0465 9.24911 64.5427 8.85914C65.021 8.82271 66.9544 8.70261 69.9726 8.87263ZM48.3141 17.0242C50.2607 17.0607 52.0168 17.0404 52.5897 17.0323C52.9254 16.7166 53.7884 15.9151 54.9055 14.9044C52.0539 14.9395 49.5871 15.7882 48.3141 17.0242ZM45.1904 16.9122C45.4865 16.9311 45.7945 16.946 46.105 16.9595C49.4564 15.1216 55.1944 12.0018 57.9142 10.7901C58.9246 10.3408 60.5344 9.48255 62.3696 8.45568C62.1485 8.41544 61.9262 8.38393 61.7031 8.36122C60.6926 8.81596 59.7301 9.24776 58.8958 9.62019L54.5016 11.7522C51.3683 13.4025 47.4619 15.6182 45.1904 16.9122ZM62.7507 8.4098C61.9812 9.01972 60.043 10.5729 57.8938 12.4242C56.1127 13.9642 54.358 15.5423 52.6305 17.1578C51.6991 17.174 46.8422 17.2402 43.8479 16.9743C43.4564 16.947 43.0671 16.8889 42.6828 16.8003L60.4817 8.16556C61.5629 8.18445 62.2797 8.29105 62.7256 8.40305L62.7507 8.4098Z" fill="#33B7BC"/>
</g>
</g>
</g>
</g>
</g>
<defs>
<clipPath id="clip0_37_71">
<rect width="315" height="50" fill="white"/>
</clipPath>
<clipPath id="clip1_37_71">
<rect width="313.697" height="44.582" fill="white" transform="translate(0.651611 1.60759)"/>
</clipPath>
<clipPath id="clip2_37_71">
<rect width="313.697" height="44.582" fill="white" transform="translate(1.57495 2)"/>
</clipPath>
<clipPath id="clip3_37_71">
<rect width="190.68" height="44.582" fill="white" transform="translate(124.591 2)"/>
</clipPath>
<clipPath id="clip4_37_71">
<rect width="190.68" height="44.582" fill="white" transform="translate(124.591 2)"/>
</clipPath>
<clipPath id="clip5_37_71">
<rect width="190.68" height="24.6824" fill="white" transform="translate(124.591 2)"/>
</clipPath>
<clipPath id="clip6_37_71">
<rect width="190.68" height="24.6824" fill="white" transform="translate(124.591 2)"/>
</clipPath>
<clipPath id="clip7_37_71">
<rect width="111.948" height="14.0727" fill="white" transform="translate(124.591 32.5094)"/>
</clipPath>
<clipPath id="clip8_37_71">
<rect width="111.948" height="14.0727" fill="white" transform="translate(124.591 32.5094)"/>
</clipPath>
<clipPath id="clip9_37_71">
<rect width="117.84" height="34.4274" fill="white" transform="translate(1.57495 7.07733)"/>
</clipPath>
<clipPath id="clip10_37_71">
<rect width="117.84" height="34.4274" fill="white" transform="translate(1.57495 7.07733)"/>
</clipPath>
</defs>
</svg>
