<svg width="80" height="14" viewBox="0 0 80 14" fill="none" xmlns="http://www.w3.org/2000/svg">
<g clip-path="url(#clip0_53_629)">
<g clip-path="url(#clip1_53_629)">
<path d="M41.8261 10.4628C41.8261 10.7519 41.6977 10.9614 41.301 10.9614H38.7679C38.4412 10.9614 38.255 10.8675 38.255 10.5664C38.255 10.2654 38.3834 10.116 38.7679 10.116H41.8261V10.4628ZM52.9962 9.2586V8.93345C52.9962 8.63237 53.1243 8.43488 53.5332 8.43488H56.0662C56.4148 8.43488 56.5888 8.53843 56.5888 8.86358C56.5888 9.14055 56.4511 9.26821 56.0906 9.26821L52.9962 9.2586ZM59.6469 7.02586V12.3487H62.209V8.48305H64.2994C65.0107 8.48305 65.3712 8.70461 65.3712 9.38625V12.3608H67.9286V9.17671C67.9286 7.6834 67.1011 7.03551 64.7665 7.03551L59.6469 7.02586ZM53.3567 7.02586C51.2979 7.02586 50.4729 7.7075 50.4729 9.24654V10.3015C50.4729 11.631 51.2979 12.3487 53.1584 12.3487H58.5655V10.959H53.6591C53.1752 10.959 53.0084 10.8193 53.0084 10.4604V10.2413H56.8793C58.2147 10.2413 58.9698 9.8246 58.9698 8.82986V8.589C58.9698 7.6858 58.5171 7.03791 56.2502 7.03791L53.3567 7.02586ZM45.131 12.3487H47.6881V8.86358C47.6881 8.62272 47.7824 8.48065 48.097 8.48065H50.0737V7.03551H47.2307C45.7067 7.03551 45.126 7.60151 45.126 8.55048L45.131 12.3487ZM36.3899 7.02586V8.42763H41.1923C41.6762 8.42763 41.8333 8.59141 41.8333 8.93826V9.14299H37.9767C36.3608 9.14299 35.8744 9.80534 35.8744 10.6483V10.8555C35.8744 12.026 36.8156 12.3487 38.6639 12.3487H41.5018C43.5123 12.3487 44.3831 11.8983 44.3831 10.3232V9.09482C44.3831 7.76288 43.5582 7.03551 41.688 7.03551L36.3899 7.02586ZM21.0849 9.99802C21.0849 11.684 21.9438 12.3584 24.1647 12.3584H29.0373V10.9132H24.5373C24.0026 10.9132 23.6421 10.6724 23.6421 9.90649V9.45368C23.6421 8.76967 23.9784 8.49026 24.5252 8.49026H29.0373V7.04516H24.0946C21.9171 7.04516 21.0849 7.95797 21.0849 9.41756V9.99802ZM29.7946 6.19012V12.3584H35.3591V10.9132H32.3591V6.19012H29.7946ZM13.8268 9.63912V6.19012H12.3752C11.48 6.19012 10.9695 6.54658 10.4397 6.96567L3.62195 12.3584H6.70179L11.2381 8.7022V12.3584H13.3647L17.7583 8.67814V12.3584H20.3639V6.19012H18.9438C18.1768 6.19012 17.6421 6.50322 17.1074 6.94157L13.8268 9.63912Z" fill="white"/>
<path d="M74.0786 1.7251C72.651 1.7251 70.6406 2.149 68.4605 2.94382C66.5118 3.64927 64.6459 4.56432 62.8962 5.67269C64.5742 5.05866 66.3439 4.72896 68.1316 4.69722C70.6334 4.69722 72.4139 5.66064 69.7841 8.99167C77.5259 3.93372 77.325 1.73714 74.0786 1.73714" fill="#FF9800"/>
</g>
</g>
<defs>
<clipPath id="clip0_53_629">
<rect width="80" height="13.63" fill="white" transform="translate(0 0.0800171)"/>
</clipPath>
<clipPath id="clip1_53_629">
<rect width="80" height="13.63" fill="white" transform="translate(0 0.0800171)"/>
</clipPath>
</defs>
</svg>
