<svg width="26" height="26" viewBox="0 0 26 26" fill="none" xmlns="http://www.w3.org/2000/svg">
<g clip-path="url(#clip0_49_350)">
<g clip-path="url(#clip1_49_350)">
<g clip-path="url(#clip2_49_350)">
<path d="M3.22195 2.08234L4.12853 1.17577C4.70583 0.598473 5.64181 0.598474 6.21911 1.17577L10.0416 4.99824C10.6189 5.57553 10.6189 6.51152 10.0416 7.08881L7.39192 9.73846C6.95009 10.1803 6.84055 10.8553 7.11999 11.4141C8.73537 14.6449 11.3551 17.2645 14.5858 18.8799C15.1447 19.1594 15.8197 19.0499 16.2615 18.6081L18.9111 15.9584C19.4884 15.3811 20.4244 15.3811 21.0017 15.9584L24.8241 19.7808C25.4014 20.3581 25.4014 21.2941 24.8241 21.8714L23.9176 22.778C20.7965 25.8992 15.8552 26.2503 12.3242 23.6019L10.5378 22.2622C7.9604 20.3291 5.67083 18.0395 3.73779 15.4621L2.39803 13.6758C-0.250336 10.1447 0.100824 5.20347 3.22195 2.08234Z" fill="white"/>
</g>
</g>
</g>
<defs>
<clipPath id="clip0_49_350">
<rect width="25.5" height="25.5" fill="white" transform="translate(0 0.5)"/>
</clipPath>
<clipPath id="clip1_49_350">
<rect width="25.5" height="25.5" fill="white" transform="translate(0 0.5)"/>
</clipPath>
<clipPath id="clip2_49_350">
<rect width="25.5" height="25.5" fill="white" transform="translate(0 0.5)"/>
</clipPath>
</defs>
</svg>
