<svg width="80" height="11" viewBox="0 0 80 11" fill="none" xmlns="http://www.w3.org/2000/svg">
<g clip-path="url(#clip0_53_606)">
<g clip-path="url(#clip1_53_606)">
<g clip-path="url(#clip2_53_606)">
<path d="M79.9682 0.869995H0.182129V10.93H79.9682V0.869995Z" fill="black" fill-opacity="0.01"/>
<path fill-rule="evenodd" clip-rule="evenodd" d="M18.2749 7.44984H23.6205C23.9454 7.44984 24.2121 7.30697 24.2121 6.936V5.2C24.2121 4.82939 23.9522 4.68619 23.6205 4.68619H18.2749C17.9432 4.68619 17.6766 4.82939 17.6766 5.2V6.936C17.6766 7.30697 17.9496 7.44984 18.2749 7.44984ZM8.00042 4.68619V6.09081H14.009C14.2693 6.09081 14.4967 5.98684 14.4967 5.69405V5.1742C14.4967 4.86865 14.3146 4.68654 14.009 4.68654L8.00042 4.68619ZM27.4051 4.68619V6.09081H33.674C33.8818 6.09081 33.9338 5.91507 33.9338 5.73964V5.11514C33.9338 4.81596 33.8234 4.68583 33.5176 4.68583L27.4051 4.68619ZM16.6101 7.09206V4.80937C16.6101 4.08088 17.1239 3.6452 17.8326 3.6452H23.9911C24.6998 3.6452 25.2136 4.08088 25.2136 4.80937V7.09206C25.2136 7.82091 24.6998 8.25588 23.9911 8.25588H17.8326C17.1239 8.25588 16.6101 7.82091 16.6101 7.09206ZM6.94666 3.64555H14.4968C15.2185 3.64555 15.5308 4.33479 15.5308 4.97204V5.50532C15.5308 6.31161 15.0495 6.89722 14.2107 6.89722H8.00049V8.25588H6.94666V3.64555ZM26.3516 3.64555H33.9338C34.4735 3.64555 34.968 4.00306 34.968 4.56889V5.76557C34.968 6.26634 34.5777 6.53262 34.1355 6.65002C34.7728 6.94921 34.9028 7.61226 34.968 8.25588H33.9338C33.8883 7.56028 33.589 6.89722 32.7895 6.89722H27.4051V8.25588H26.3516V3.64555ZM44.5071 3.64555V4.56889H37.4976C37.2177 4.56889 37.1007 4.77046 37.1007 5.0371C37.1007 5.29067 37.2307 5.48586 37.4976 5.48586H43.2137C44.15 5.48586 44.6573 5.93463 44.6573 6.89051C44.6573 7.69043 44.2282 8.25588 43.396 8.25588H36.2101V7.33254H43.2139C43.4543 7.33254 43.5587 7.1246 43.5587 6.90995C43.5587 6.66345 43.5072 6.40282 43.2139 6.40282H37.2765C36.5092 6.40282 36.067 5.8112 36.067 5.07636C36.067 4.15937 36.561 3.64591 37.4978 3.64591L44.5071 3.64555ZM53.9497 3.64555V4.56889H47.0304C46.8682 4.56889 46.8094 4.72484 46.8094 4.86168V7.10552C46.8094 7.24236 46.8944 7.3329 47.0304 7.3329H53.9497V8.25623H47.0304C46.2762 8.25623 45.7629 7.73603 45.7629 6.97501V4.99855C45.7629 4.1272 46.1333 3.64591 47.0304 3.64591L53.9497 3.64555ZM55.0809 3.64555H56.141V5.44023H62.2608V3.64555H63.3465V8.25588H62.2608V6.36359H56.141V8.25588H55.0809V3.64555ZM64.4586 3.64555H73.1075V4.56889H65.5117V5.46005H73.1075V6.37667H65.5117V7.33254H73.1075V8.25588H64.4586V3.64555Z" fill="white"/>
</g>
</g>
</g>
<defs>
<clipPath id="clip0_53_606">
<rect width="80" height="10.06" fill="white" transform="translate(0 0.869995)"/>
</clipPath>
<clipPath id="clip1_53_606">
<rect width="80" height="10.06" fill="white" transform="translate(0 0.869995)"/>
</clipPath>
<clipPath id="clip2_53_606">
<rect width="79.977" height="10.06" fill="white" transform="translate(0.0114746 0.869995)"/>
</clipPath>
</defs>
</svg>
