<svg width="80" height="21" viewBox="0 0 80 21" fill="none" xmlns="http://www.w3.org/2000/svg">
<g clip-path="url(#clip0_53_578)">
<g clip-path="url(#clip1_53_578)">
<g clip-path="url(#clip2_53_578)">
<mask id="mask0_53_578" style="mask-type:luminance" maskUnits="userSpaceOnUse" x="0" y="0" width="80" height="21">
<path d="M79.807 0.900024H0.151855V20.9H79.807V0.900024Z" fill="white"/>
</mask>
<g mask="url(#mask0_53_578)">
<path d="M31.1331 14.3715C31.4859 15.1566 32.2027 15.6414 32.8903 15.6414C33.798 15.6414 34.4834 14.9008 34.4834 13.9714C34.4834 13.1462 34.125 12.6846 32.5846 11.5779C31.2039 10.5865 30.695 9.85996 30.695 8.80144C30.695 7.6662 31.5207 6.58734 32.9026 6.58734C33.8969 6.58734 34.7924 7.16744 35.0676 8.1012L34.3081 8.49427C34.0643 7.8103 33.5003 7.43392 32.8835 7.43392C32.1566 7.43392 31.569 8.01179 31.569 8.72517C31.569 9.36893 31.8544 10.0269 33.0677 10.8749C34.7462 12.038 35.3755 12.7159 35.3755 13.9714C35.3755 15.4062 34.3216 16.488 32.8712 16.488C31.7589 16.488 30.7017 15.7645 30.3512 14.7731L31.1331 14.3715ZM19.5545 15.423V6.79699H18.6253V16.273H23.3002L23.5215 15.423H19.5545ZM25.5775 15.423V6.79699H24.6495V16.273H29.3232L29.5456 15.423H25.5775ZM79.3914 11.8495V10.9995H75.6276V7.64689H79.5958V6.79689H74.6996V16.273H79.5486L79.769 15.423H75.6276V11.8495H79.3914ZM61.9752 16.273V11.994L65.26 6.79699H64.1793L61.5483 11.1313L58.8955 6.79699H57.7979L61.0472 11.9936V16.273H61.9752ZM39.4176 11.9387V11.107H36.389V11.9387H39.4176ZM73.4358 14.9409L73.5121 14.8605L72.8852 14.316L72.8076 14.3936C72.0065 15.204 71.0248 15.6339 69.8272 15.6339C67.5814 15.6339 65.86 13.8528 65.86 11.5284C65.86 9.28086 67.6665 7.42268 69.9014 7.42268C71.09 7.42268 72.0672 7.84427 72.7886 8.60575L72.8817 8.70451L73.4234 8.01541L73.3603 7.94937C72.5538 7.09824 71.3741 6.57472 69.9248 6.57472C67.171 6.57472 64.9714 8.81358 64.9714 11.5654C64.9714 14.3705 67.0217 16.4827 69.7955 16.4827C71.2617 16.4827 72.5359 15.8877 73.4358 14.9409ZM6.28047 16.273L3.37963 11.4732H1.07986V16.273H0.151855V5.33179H3.383C5.19857 5.33179 6.56809 6.65189 6.56809 8.40244C6.56809 9.84279 5.6704 10.9998 4.3166 11.3368L7.3916 16.273H6.28047ZM3.50771 10.5903C4.91543 10.5903 5.65243 9.48972 5.65243 8.40244C5.65243 7.15517 4.68174 6.21461 3.39536 6.21461H1.07986V10.5903H3.50771ZM12.4473 16.4827C9.66891 16.4827 7.5736 14.3636 7.5736 11.5535C7.5736 8.76872 9.71385 6.58734 12.4473 6.58734C15.2212 6.58734 17.3019 8.75303 17.3019 11.5165C17.3019 14.2604 15.1594 16.4827 12.4473 16.4827ZM12.4102 7.44382C10.2149 7.44382 8.49488 9.24903 8.49488 11.5536C8.49488 13.5551 9.98685 15.6254 12.4844 15.6254C14.6695 15.6254 16.3806 13.8205 16.3806 11.5164C16.3806 8.8712 14.3347 7.44382 12.4102 7.44382ZM46.9393 16.273L44.0386 11.4732H41.7389V16.273H40.8107V5.33179H44.0421C45.8576 5.33179 47.2269 6.65189 47.2269 8.40244C47.2269 9.84279 46.3293 10.9998 44.9755 11.3368L48.0507 16.273H46.9393ZM44.1665 10.5903C45.5745 10.5903 46.3114 9.48972 46.3114 8.40244C46.3114 7.15517 45.3407 6.21461 44.0545 6.21461H41.7389V10.5903H44.1665ZM53.1062 16.4827C50.3279 16.4827 48.2324 14.3636 48.2324 11.5535C48.2324 8.76872 50.3738 6.58734 53.1062 6.58734C55.88 6.58734 57.9607 8.75303 57.9607 11.5165C57.9607 14.2604 55.8183 16.4827 53.1062 16.4827ZM53.0693 7.44382C50.8738 7.44382 49.1538 9.24903 49.1538 11.5536C49.1538 13.5551 50.6458 15.6254 53.1434 15.6254C55.3286 15.6254 57.0396 13.8205 57.0396 11.5164C57.0396 8.8712 54.9938 7.44382 53.0693 7.44382Z" fill="white"/>
</g>
</g>
</g>
</g>
<defs>
<clipPath id="clip0_53_578">
<rect width="80" height="20" fill="white" transform="translate(0 0.900024)"/>
</clipPath>
<clipPath id="clip1_53_578">
<rect width="80" height="20" fill="white" transform="translate(0 0.900024)"/>
</clipPath>
<clipPath id="clip2_53_578">
<rect width="80" height="20" fill="white" transform="translate(0 0.900024)"/>
</clipPath>
</defs>
</svg>
