<svg width="54" height="54" viewBox="0 0 54 54" fill="none" xmlns="http://www.w3.org/2000/svg">
<rect width="54" height="54" rx="27" fill="#34AADF"/>
<path fill-rule="evenodd" clip-rule="evenodd" d="M17.5527 25.2889C23.3831 22.7487 27.271 21.074 29.2163 20.2649C34.7705 17.9547 35.9246 17.5534 36.6768 17.5402C36.8423 17.5373 37.2122 17.5783 37.4518 17.7727C37.6542 17.9369 37.7098 18.1587 37.7365 18.3143C37.7631 18.47 37.7963 18.8246 37.7699 19.1017C37.4689 22.2641 36.1666 29.9386 35.504 33.4806C35.2237 34.9794 34.6716 35.4819 34.1372 35.5311C32.9758 35.638 32.0938 34.7635 30.9689 34.0261C29.2086 32.8723 28.2142 32.154 26.5056 31.028C24.5309 29.7268 25.811 29.0116 26.9364 27.8428C27.2309 27.5369 32.3482 22.8823 32.4472 22.4601C32.4596 22.4072 32.4711 22.2104 32.3542 22.1065C32.2372 22.0025 32.0646 22.0381 31.9401 22.0663C31.7635 22.1064 28.9515 23.965 23.504 27.6423C22.7058 28.1904 21.9828 28.4574 21.335 28.4434C20.6209 28.428 19.2473 28.0397 18.2261 27.7077C16.9736 27.3006 15.9782 27.0853 16.0648 26.3939C16.11 26.0337 16.6059 25.6654 17.5527 25.2889Z" fill="white"/>
</svg>
