<svg width="30" height="30" viewBox="0 0 30 30" fill="none" xmlns="http://www.w3.org/2000/svg">
<g clip-path="url(#clip0_7_111)">
<g clip-path="url(#clip1_7_111)">
<g clip-path="url(#clip2_7_111)">
<path fill-rule="evenodd" clip-rule="evenodd" d="M29.6939 15.2017C29.6939 23.3169 23.1152 29.8956 15 29.8956C6.88485 29.8956 0.306152 23.3169 0.306152 15.2017C0.306152 7.0865 6.88485 0.507812 15 0.507812C23.1152 0.507812 29.6939 7.0865 29.6939 15.2017ZM15.5266 11.3555C14.0974 11.9499 11.241 13.1803 6.95746 15.0466C6.26186 15.3232 5.89748 15.5938 5.86432 15.8584C5.80826 16.3056 6.36825 16.4816 7.13085 16.7215C7.23456 16.754 7.34201 16.7878 7.45221 16.8236C8.20246 17.0676 9.21168 17.3529 9.73632 17.3642C10.2122 17.3745 10.7434 17.1783 11.3298 16.7756C15.3321 14.0739 17.3981 12.7084 17.5277 12.6789C17.6193 12.6582 17.7461 12.6321 17.832 12.7084C17.9179 12.7848 17.9095 12.9294 17.9004 12.9682C17.8449 13.2047 15.6467 15.2483 14.5091 16.3059C14.1545 16.6356 13.9029 16.8694 13.8516 16.9229C13.7364 17.0425 13.619 17.1557 13.5062 17.2645C12.8091 17.9364 12.2864 18.4403 13.5351 19.2631C14.1351 19.6585 14.6152 19.9855 15.0943 20.3117C15.6174 20.6679 16.1392 21.0232 16.8142 21.4657C16.9862 21.5785 17.1505 21.6956 17.3105 21.8097C17.9193 22.2437 18.4663 22.6336 19.142 22.5715C19.5346 22.5353 19.9402 22.1661 20.1461 21.065C20.6329 18.4627 21.5898 12.8243 21.8109 10.5009C21.8303 10.2973 21.8059 10.0368 21.7863 9.92242C21.7667 9.80805 21.7258 9.64507 21.5772 9.52446C21.4012 9.38162 21.1294 9.3515 21.0078 9.35364C20.4551 9.36338 19.6072 9.65817 15.5266 11.3555Z" fill="white"/>
</g>
</g>
</g>
<defs>
<clipPath id="clip0_7_111">
<rect width="30" height="30" fill="white"/>
</clipPath>
<clipPath id="clip1_7_111">
<rect width="30" height="30" fill="white"/>
</clipPath>
<clipPath id="clip2_7_111">
<rect width="29.3878" height="30" fill="white" transform="translate(0.306152)"/>
</clipPath>
</defs>
</svg>
