<svg width="25" height="25" viewBox="0 0 25 25" fill="none" xmlns="http://www.w3.org/2000/svg">
<g clip-path="url(#clip0_49_127)">
<g clip-path="url(#clip1_49_127)">
<g clip-path="url(#clip2_49_127)">
<path d="M12.9553 24.0354L16.3254 5.09646C19.5341 5.09646 20.5499 5.44771 20.6923 6.88119C20.6923 6.88119 22.8473 6.07426 23.9295 4.45092C19.6955 2.48583 15.4331 2.40039 15.4331 2.40039L12.9458 5.42872H12.9553L10.4681 2.40039C10.4681 2.40039 6.20565 2.48583 1.97168 4.45092C3.05391 6.08376 5.20886 6.88119 5.20886 6.88119C5.35126 5.44771 6.36704 5.09646 9.55676 5.08697L12.9553 24.0354Z" fill="white"/>
<path d="M12.9554 1.52702C16.3824 1.49854 20.3031 2.05864 24.3187 3.80539C24.8598 2.83708 24.9928 2.40989 24.9928 2.40989C20.6069 0.672629 16.4963 0.0840499 12.9554 0.0650635C9.41439 0.0840499 5.30383 0.672629 0.917969 2.40989C0.917969 2.40989 1.11733 2.93201 1.59199 3.80539C5.60761 2.04914 9.52831 1.49854 12.9554 1.52702Z" fill="white"/>
</g>
</g>
</g>
<defs>
<clipPath id="clip0_49_127">
<rect width="24.09" height="23.98" fill="white" transform="translate(0.909912 0.0599365)"/>
</clipPath>
<clipPath id="clip1_49_127">
<rect width="24.09" height="23.98" fill="white" transform="translate(0.909912 0.0599365)"/>
</clipPath>
<clipPath id="clip2_49_127">
<rect width="24.0748" height="23.98" fill="white" transform="translate(0.91748 0.0599365)"/>
</clipPath>
</defs>
</svg>
