<svg width="30" height="30" viewBox="0 0 30 30" fill="none" xmlns="http://www.w3.org/2000/svg">
<g clip-path="url(#clip0_7_115)">
<g clip-path="url(#clip1_7_115)">
<g clip-path="url(#clip2_7_115)">
<path fill-rule="evenodd" clip-rule="evenodd" d="M15 29.8956C23.1152 29.8956 29.6939 23.3169 29.6939 15.2017C29.6939 7.0865 23.1152 0.507812 15 0.507812C6.88485 0.507812 0.306152 7.0865 0.306152 15.2017C0.306152 23.3169 6.88485 29.8956 15 29.8956ZM18.3633 15.9685C18.6954 16.1226 19.0276 16.2767 19.1162 16.3207L19.4705 16.4968C19.5591 16.849 19.559 17.2012 19.3819 17.5534C19.0276 18.0817 18.4961 18.522 17.8761 18.6101C17.3446 18.6982 16.9017 18.6982 16.4588 18.522C16.1169 18.4541 15.8277 18.3336 15.5099 18.2012C15.416 18.1621 15.3197 18.1219 15.2187 18.0817C13.7128 17.3774 12.4727 16.2326 11.4984 14.8238C10.9669 14.1194 10.7012 13.3269 10.6126 12.5344C10.6126 11.83 10.8783 11.2136 11.4098 10.6853C11.4984 10.5972 11.7641 10.4212 11.9413 10.4212H12.3842C12.5613 10.4212 12.7385 10.4212 12.8271 11.0375C13.0042 11.4778 13.4471 12.5344 13.5357 12.6225C13.6243 12.7105 13.6243 12.8866 13.5357 12.9747C13.5357 13.0627 13.4471 13.2388 13.3585 13.3269C13.2351 13.3883 13.1546 13.4925 13.0871 13.5798C13.0579 13.6177 13.0311 13.6525 13.0042 13.6791C12.9156 13.7671 12.8271 13.9433 12.9156 14.1194C13.2699 14.6477 13.7128 15.176 14.1557 15.6163C14.6872 16.0566 15.3073 16.4087 15.9273 16.6729C16.1045 16.7609 16.2816 16.7609 16.3702 16.5849C16.4588 16.4968 16.5917 16.3207 16.7245 16.1446C16.8574 15.9685 16.9903 15.7924 17.0788 15.7043C17.256 15.5282 17.4332 15.5282 17.6103 15.6163C17.6989 15.6603 18.0311 15.8144 18.3633 15.9685ZM8.84103 8.30787C12.2956 4.87379 17.8761 4.87379 21.3306 8.30787C22.925 9.98089 23.8994 12.1822 23.8108 14.4716C23.8108 19.3145 19.9134 23.1888 15.0415 23.1888C13.6243 23.1888 12.207 22.8366 10.8783 22.1322L6.1837 23.3649L7.42381 18.8742C5.47508 15.4402 6.00654 11.1255 8.84103 8.30787ZM15.0415 21.78C16.4588 21.78 17.7875 21.3397 18.939 20.6353C22.3936 18.522 23.3679 14.0313 21.242 10.5972C19.1162 7.25119 14.6872 6.10653 11.2326 8.30787C7.77811 10.5092 6.71519 14.9118 8.84103 18.434L9.01821 18.6982L8.3096 21.3397L11.0555 20.6353L11.3212 20.8114C12.4727 21.4278 13.7128 21.78 15.0415 21.78Z" fill="white"/>
</g>
</g>
</g>
<defs>
<clipPath id="clip0_7_115">
<rect width="30" height="30" fill="white"/>
</clipPath>
<clipPath id="clip1_7_115">
<rect width="30" height="30" fill="white"/>
</clipPath>
<clipPath id="clip2_7_115">
<rect width="29.3878" height="30" fill="white" transform="translate(0.306152)"/>
</clipPath>
</defs>
</svg>
