<svg width="54" height="54" viewBox="0 0 54 54" fill="none" xmlns="http://www.w3.org/2000/svg">
<rect width="54" height="54" rx="27" fill="#43D854"/>
<g clip-path="url(#clip0_49_153)">
<g clip-path="url(#clip1_49_153)">
<g clip-path="url(#clip2_49_153)">
<path d="M34.6653 30.5334C34.3365 30.37 32.1989 29.3892 31.87 29.2258C31.5412 29.0623 31.2123 29.0623 30.8835 29.3892C30.5546 29.7162 29.8969 30.6969 29.568 31.0238C29.4036 31.3507 29.0747 31.3507 28.7459 31.1872C27.5949 30.6969 26.4439 30.0431 25.4573 29.2258C24.6352 28.4085 23.813 27.4278 23.1553 26.4471C22.9909 26.1202 23.1553 25.7932 23.3197 25.6298C23.4842 25.4663 23.6486 25.1394 23.9774 24.976C24.1419 24.8125 24.3063 24.4856 24.3063 24.3222C24.4707 24.1587 24.4707 23.8318 24.3063 23.6683C24.1419 23.5049 23.3197 21.5434 22.9909 20.7262C22.8264 19.582 22.4976 19.582 22.1687 19.582H21.3466C21.0177 19.582 20.5244 19.9089 20.36 20.0724C19.3734 21.0531 18.8801 22.1973 18.8801 23.5049C19.0446 24.976 19.5379 26.4471 20.5244 27.7547C22.3332 30.37 24.6352 32.4949 27.4305 33.8025C28.2526 34.1294 28.9103 34.4563 29.7325 34.6198C30.5546 34.9467 31.3767 34.9467 32.3633 34.7832C33.5143 34.6198 34.5009 33.8025 35.1586 32.8218C35.4875 32.168 35.4875 31.5141 35.323 30.8603L34.6653 30.5334ZM38.7761 15.6591C32.3633 9.28437 22.0043 9.28437 15.5916 15.6591C10.3298 20.8896 9.34326 28.8989 12.9607 35.2736L10.6587 43.6098L19.3734 41.3214C21.8399 42.629 24.4707 43.2828 27.1016 43.2828C36.1452 43.2828 43.3801 36.0909 43.3801 27.1009C43.5445 22.8511 41.7358 18.7647 38.7761 15.6591ZM34.3365 38.5427C32.1989 39.8503 29.7325 40.6676 27.1016 40.6676C24.6352 40.6676 22.3332 40.0138 20.1956 38.8696L19.7023 38.5427L14.605 39.8503L15.9204 34.9467L15.5916 34.4563C11.6453 27.9182 13.6184 19.7454 20.0311 15.6591C26.4439 11.5727 34.6653 13.6976 38.6116 19.9089C42.5579 26.2836 40.7492 34.6198 34.3365 38.5427Z" fill="white"/>
</g>
</g>
</g>
<defs>
<clipPath id="clip0_49_153">
<rect width="34" height="34" fill="white" transform="translate(10 10)"/>
</clipPath>
<clipPath id="clip1_49_153">
<rect width="34" height="34" fill="white" transform="translate(10 10)"/>
</clipPath>
<clipPath id="clip2_49_153">
<rect width="34" height="34" fill="white" transform="translate(10 10)"/>
</clipPath>
</defs>
</svg>
